<svg width="54" height="54" viewBox="0 0 54 54" fill="none" xmlns="http://www.w3.org/2000/svg">
<rect width="54" height="54" fill="white"/>
<path d="M6.7002 14.6674C6.7002 13.1022 7.96909 11.8333 9.53436 11.8333H44.5993C46.1646 11.8333 47.4335 13.1021 47.4335 14.6674V48.1657C47.4335 49.731 46.1646 50.9999 44.5993 50.9999H9.53436C7.96909 50.9999 6.7002 49.731 6.7002 48.1657V14.6674Z" fill="#2BCDE4"/>
<path fill-rule="evenodd" clip-rule="evenodd" d="M4.5464 6.53676C4.83208 5.06374 6.12194 4 7.62241 4H46.5108C48.0113 4 49.3012 5.06374 49.5869 6.53677L51.6773 17.3155C51.9713 18.0415 52.1333 18.8352 52.1333 19.6666C52.1333 23.1276 49.3276 25.9333 45.8666 25.9333C42.4056 25.9333 39.5999 23.1276 39.5999 19.6666C39.5999 23.1276 36.7943 25.9333 33.3333 25.9333C29.8723 25.9333 27.0666 23.1276 27.0666 19.6666C27.0666 23.1276 24.261 25.9333 20.8 25.9333C17.339 25.9333 14.5333 23.1276 14.5333 19.6666C14.5333 23.1276 11.7276 25.9333 8.26666 25.9333C4.80568 25.9333 2 23.1276 2 19.6666C2 18.8352 2.16193 18.0415 2.45597 17.3155L4.5464 6.53676Z" fill="#1868B7"/>
<path d="M17.666 34.0894C17.666 33.0459 18.5119 32.2 19.5555 32.2H34.5765C35.6201 32.2 36.466 33.0459 36.466 34.0894V50.9999H17.666V34.0894Z" fill="#1868B7"/>
</svg>
