<svg width="527" height="478" viewBox="0 0 527 478" fill="none" xmlns="http://www.w3.org/2000/svg">
<ellipse rx="2.23087" ry="2.04496" transform="matrix(-0.342054 0.93968 0.93968 0.342054 436.925 269.197)" fill="#2BCDE4"/>
<ellipse rx="2.23087" ry="2.23087" transform="matrix(-0.342054 0.93968 0.93968 0.342054 319.271 392.95)" fill="#2BCDE4"/>
<path d="M436.799 269.151C485.012 286.701 509.833 340.112 492.238 388.449C474.643 436.785 421.295 461.742 373.082 444.192C347.989 435.058 329.233 416.211 319.495 393.421" stroke="#2BCDE4" stroke-width="3" stroke-linecap="round" stroke-dasharray="0.25 10"/>
<ellipse rx="0.934912" ry="0.857002" transform="matrix(0.286132 -0.95819 -0.95819 -0.286132 75.5185 87.9254)" fill="#2BCDE4"/>
<ellipse rx="0.934912" ry="0.934911" transform="matrix(0.286132 -0.95819 -0.95819 -0.286132 121.686 33.25)" fill="#2BCDE4"/>
<path d="M75.5729 87.9414C54.9697 81.789 43.2679 60.0566 49.436 39.4008C55.6042 18.745 77.3067 6.98774 97.9098 13.1402C108.633 16.3422 116.944 23.7643 121.581 33.0583" stroke="#2BCDE4" stroke-width="3" stroke-linecap="round" stroke-dasharray="0.25 10"/>
<circle cx="57" cy="315" r="41.5" stroke="#2BCDE4" stroke-width="3"/>
<circle cx="487.5" cy="127.5" r="16.5" stroke="#1868B7" stroke-width="4"/>
<path d="M442 31C417.147 31 397 51.1472 397 76H487C487 51.1472 466.853 31 442 31Z" fill="#2BCDE4"/>
<path d="M28 424C43.464 424 56 411.464 56 396L-2.44784e-06 396C-1.09593e-06 411.464 12.536 424 28 424Z" fill="#1868B7"/>
<ellipse opacity="0.2" cx="238.5" cy="459" rx="138.5" ry="17" fill="#04111D"/>
<path d="M396.529 190.981V199.326C396.529 224.413 406.72 248.424 424.764 265.853L439.61 280.191C448.167 288.456 453 299.842 453 311.739V320.754C453 339.999 437.399 355.599 418.155 355.599H414.548C397.295 355.599 383.31 341.614 383.31 324.362V324.362C383.31 307.109 369.324 293.124 352.072 293.124H350.713" stroke="#8A939B" stroke-width="10"/>
<path d="M376.285 171.802V185.121C376.285 193.065 382.725 199.505 390.669 199.505V199.505" stroke="#2BCDE4" stroke-width="10"/>
<path d="M345.385 98.8162V98.8162C364.794 109.672 376.817 130.173 376.817 152.411V155.287" stroke="#8A939B" stroke-width="25" stroke-linejoin="round"/>
<path d="M388.178 135.576H404.642C410.165 135.576 414.642 140.053 414.642 145.576V162.335C414.642 167.858 410.165 172.335 404.642 172.335H367.228V149.485L388.178 135.576Z" fill="#2BCDE4"/>
<path d="M386.94 172.335H406.651V206.164C406.651 211.608 402.239 216.02 396.795 216.02C391.352 216.02 386.94 211.608 386.94 206.164V172.335Z" fill="#2BCDE4"/>
<rect x="112" y="356" width="255" height="40" rx="10" fill="#1868B7"/>
<path d="M126 73C126 61.9543 134.954 53 146 53H333C344.046 53 353 61.9543 353 73V356H126V73Z" fill="#2BCDE4"/>
<rect x="186.627" y="271.995" width="74.64" height="74.64" rx="10" transform="rotate(-45 186.627 271.995)" fill="white"/>
<path d="M240.025 247.452L239.696 248.569V280.974L240.025 281.302L255.067 272.411L240.025 247.452Z" fill="#1868B7"/>
<path d="M240.027 247.452L224.985 272.411L240.027 281.302V265.574V247.452Z" fill="#1868B7"/>
<path d="M240.029 284.155L239.843 284.381V295.925L240.029 296.465L255.08 275.269L240.029 284.155Z" fill="#1868B7"/>
<path d="M240.027 296.465V284.155L224.985 275.269L240.027 296.465Z" fill="#1868B7"/>
<path d="M240.025 281.303L255.067 272.412L240.025 265.575V281.303Z" fill="#1868B7"/>
<path d="M224.985 272.412L240.027 281.303V265.575L224.985 272.412Z" fill="#1868B7"/>
<rect x="157" y="80" width="170" height="110" rx="10" fill="#1868B7"/>
<rect x="173" y="99" width="92" height="16" rx="8" fill="#2BCDE4"/>
<rect width="30" height="16" rx="8" transform="matrix(-1 0 0 1 311 99)" fill="#2BCDE4"/>
<rect x="173" y="125" width="92" height="16" rx="8" fill="#2BCDE4"/>
<rect width="30" height="16" rx="8" transform="matrix(-1 0 0 1 311 125)" fill="#2BCDE4"/>
<rect x="173" y="152" width="92" height="16" rx="8" fill="#2BCDE4"/>
<rect width="30" height="16" rx="8" transform="matrix(-1 0 0 1 311 152)" fill="#2BCDE4"/>
<path d="M351 190L351 80L363 80C368.523 80 373 84.4771 373 90L373 180C373 185.523 368.523 190 363 190L351 190Z" fill="#1868B7"/>
</svg>
