<svg width="588" height="530" viewBox="0 0 588 530" fill="none" xmlns="http://www.w3.org/2000/svg">
<path d="M399.049 269.272C400.636 269.272 401.923 267.868 401.923 266.136C401.923 264.404 400.636 263 399.049 263C397.461 263 396.174 264.404 396.174 266.136C396.174 267.868 397.461 269.272 399.049 269.272Z" fill="#2BCDE4"/>
<path d="M303.136 489.322C304.868 489.322 306.272 487.917 306.272 486.185C306.272 484.453 304.868 483.049 303.136 483.049C301.404 483.049 300 484.453 300 486.185C300 487.917 301.404 489.322 303.136 489.322Z" fill="#2BCDE4"/>
<path fill-rule="evenodd" clip-rule="evenodd" d="M302.633 485.605C302.029 486.171 301.998 487.121 302.564 487.725L302.654 487.821C303.221 488.425 304.171 488.455 304.775 487.888C305.378 487.321 305.408 486.372 304.841 485.768L304.753 485.674C304.187 485.069 303.238 485.038 302.633 485.605ZM310.059 493.087C309.501 493.7 309.547 494.649 310.16 495.206L310.355 495.383C310.969 495.939 311.917 495.892 312.473 495.278C313.029 494.664 312.982 493.715 312.368 493.159L312.178 492.986C311.564 492.429 310.616 492.474 310.059 493.087ZM318.162 500.032C317.656 500.688 317.778 501.63 318.434 502.135L318.643 502.296C319.3 502.8 320.242 502.676 320.746 502.019C321.251 501.362 321.127 500.42 320.469 499.916L320.265 499.759C319.609 499.253 318.667 499.375 318.162 500.032ZM326.802 506.294C326.352 506.99 326.55 507.918 327.245 508.369L327.466 508.512C328.163 508.961 329.091 508.761 329.54 508.065C329.989 507.369 329.789 506.44 329.093 505.991L328.877 505.851C328.181 505.401 327.253 505.599 326.802 506.294ZM335.925 511.832C335.533 512.562 335.806 513.471 336.536 513.864L336.768 513.988C337.498 514.379 338.407 514.103 338.798 513.373C339.189 512.642 338.913 511.733 338.183 511.343L337.956 511.221C337.226 510.829 336.317 511.103 335.925 511.832ZM345.469 516.604C345.138 517.364 345.486 518.248 346.245 518.579L346.487 518.684C347.247 519.013 348.13 518.664 348.459 517.904C348.789 517.144 348.44 516.26 347.68 515.931L347.444 515.828C346.684 515.497 345.8 515.845 345.469 516.604ZM355.374 520.576C355.107 521.36 355.526 522.212 356.31 522.48L356.559 522.564C357.344 522.83 358.195 522.409 358.461 521.625C358.727 520.84 358.306 519.989 357.521 519.723L357.278 519.64C356.494 519.373 355.641 519.792 355.374 520.576ZM365.572 523.718C365.371 524.521 365.858 525.336 366.662 525.538L366.917 525.602C367.721 525.802 368.535 525.313 368.735 524.509C368.936 523.705 368.446 522.891 367.642 522.691L367.392 522.628C366.589 522.427 365.774 522.914 365.572 523.718ZM375.995 526.009C375.86 526.826 376.413 527.599 377.231 527.733L377.491 527.776C378.309 527.91 379.08 527.355 379.213 526.537C379.346 525.72 378.791 524.949 377.974 524.815L377.72 524.774C376.902 524.639 376.13 525.192 375.995 526.009ZM386.571 527.437C386.504 528.262 387.118 528.987 387.944 529.054L388.207 529.076C389.033 529.142 389.756 528.526 389.822 527.7C389.888 526.874 389.272 526.151 388.446 526.085L388.189 526.064C387.363 525.997 386.639 526.611 386.571 527.437ZM397.229 527.999C397.228 528.827 397.899 529.499 398.727 529.5L398.987 529.5C399.815 529.499 400.486 528.827 400.485 527.999C400.484 527.17 399.812 526.499 398.984 526.5L398.73 526.5C397.902 526.499 397.229 527.17 397.229 527.999ZM397.359 266.136C397.359 266.965 398.031 267.636 398.859 267.636L398.984 267.636C399.812 267.637 400.484 266.966 400.485 266.138C400.486 265.309 399.815 264.637 398.987 264.636L398.859 264.636C398.031 264.636 397.359 265.308 397.359 266.136ZM407.509 266.41C407.445 267.236 408.063 267.957 408.889 268.021L409.136 268.04C409.962 268.105 410.684 267.489 410.749 266.663C410.814 265.837 410.198 265.115 409.372 265.05L409.119 265.03C408.293 264.966 407.572 265.584 407.509 266.41ZM407.509 527.726C407.572 528.552 408.293 529.17 409.119 529.107L409.372 529.087C410.198 529.022 410.814 528.299 410.749 527.473C410.684 526.648 409.962 526.031 409.136 526.096L408.889 526.115C408.063 526.179 407.445 526.9 407.509 527.726ZM417.716 267.482C417.587 268.301 418.147 269.068 418.965 269.196L419.211 269.235C420.029 269.365 420.797 268.807 420.927 267.989C421.057 267.171 420.499 266.402 419.681 266.272L419.43 266.233C418.611 266.104 417.844 266.664 417.716 267.482ZM417.716 526.654C417.844 527.473 418.611 528.032 419.43 527.904L419.681 527.864C420.499 527.734 421.057 526.966 420.927 526.147C420.797 525.329 420.029 524.771 419.211 524.901L418.965 524.94C418.147 525.068 417.587 525.836 417.716 526.654ZM427.816 269.357C427.624 270.163 428.12 270.972 428.926 271.165L429.167 271.223C429.972 271.417 430.782 270.921 430.977 270.116C431.171 269.311 430.675 268.5 429.87 268.306L429.624 268.247C428.818 268.054 428.009 268.551 427.816 269.357ZM427.816 524.779C428.009 525.585 428.818 526.082 429.624 525.889L429.87 525.83C430.675 525.636 431.171 524.826 430.977 524.02C430.782 523.215 429.972 522.72 429.167 522.914L428.926 522.972C428.121 523.164 427.624 523.974 427.816 524.779ZM437.731 272.025C437.475 272.813 437.906 273.659 438.694 273.915L438.93 273.992C439.717 274.249 440.565 273.82 440.822 273.032C441.08 272.245 440.65 271.398 439.863 271.14L439.621 271.062C438.833 270.806 437.987 271.237 437.731 272.025ZM437.731 522.112C437.987 522.899 438.834 523.331 439.621 523.075L439.863 522.996C440.65 522.738 441.08 521.891 440.822 521.104C440.565 520.317 439.718 519.887 438.93 520.145L438.694 520.221C437.907 520.477 437.475 521.324 437.731 522.112ZM447.404 275.471C447.087 276.236 447.449 277.114 448.214 277.431L448.443 277.526C449.207 277.846 450.086 277.484 450.405 276.72C450.724 275.955 450.363 275.077 449.598 274.758L449.365 274.661C448.6 274.343 447.722 274.706 447.404 275.471ZM447.404 518.665C447.722 519.431 448.6 519.793 449.365 519.476L449.598 519.378C450.363 519.059 450.724 518.181 450.405 517.416C450.086 516.652 449.207 516.291 448.443 516.61L448.214 516.705C447.449 517.023 447.087 517.9 447.404 518.665ZM456.775 279.673C456.398 280.411 456.691 281.314 457.428 281.692L457.649 281.804C458.385 282.183 459.29 281.893 459.668 281.156C460.047 280.419 459.756 279.515 459.019 279.136L458.794 279.02C458.056 278.643 457.153 278.936 456.775 279.673ZM456.776 514.463C457.153 515.201 458.056 515.493 458.794 515.116L459.019 515C459.756 514.622 460.047 513.718 459.668 512.981C459.29 512.244 458.385 511.953 457.649 512.332L457.428 512.445C456.691 512.822 456.398 513.726 456.776 514.463ZM465.784 284.601C465.35 285.306 465.57 286.23 466.275 286.664L466.486 286.794C467.191 287.23 468.115 287.011 468.551 286.307C468.986 285.602 468.768 284.678 468.063 284.242L467.847 284.109C467.141 283.675 466.218 283.895 465.784 284.601ZM465.784 509.535C466.218 510.241 467.142 510.461 467.847 510.027L468.063 509.894C468.768 509.459 468.986 508.534 468.551 507.83C468.115 507.125 467.191 506.906 466.486 507.342L466.275 507.472C465.57 507.906 465.35 508.83 465.784 509.535ZM474.378 290.223C473.89 290.892 474.037 291.831 474.706 292.319L474.906 292.465C475.575 292.954 476.513 292.809 477.003 292.14C477.492 291.472 477.347 290.533 476.678 290.044L476.474 289.895C475.804 289.407 474.866 289.554 474.378 290.223ZM474.378 503.913C474.866 504.583 475.804 504.73 476.474 504.242L476.678 504.092C477.347 503.603 477.492 502.664 477.003 501.996C476.513 501.327 475.575 501.182 474.906 501.672L474.706 501.818C474.037 502.306 473.89 503.244 474.378 503.913ZM482.505 296.501C481.966 297.13 482.039 298.077 482.669 298.616L482.857 298.777C483.485 299.317 484.432 299.246 484.972 298.617C485.512 297.989 485.441 297.042 484.812 296.502L484.62 296.337C483.991 295.798 483.044 295.871 482.505 296.501ZM482.505 497.636C483.044 498.265 483.991 498.338 484.62 497.799L484.812 497.634C485.441 497.094 485.512 496.147 484.972 495.519C484.432 494.891 483.485 494.819 482.857 495.359L482.669 495.521C482.039 496.06 481.966 497.007 482.505 497.636ZM490.117 303.394C489.531 303.979 489.53 304.929 490.115 305.515L490.29 305.691C490.874 306.278 491.824 306.281 492.411 305.697C492.998 305.113 493.001 304.163 492.417 303.576L492.238 303.396C491.653 302.81 490.703 302.809 490.117 303.394ZM490.117 490.742C490.703 491.328 491.653 491.327 492.238 490.74L492.417 490.561C493.001 489.973 492.998 489.024 492.411 488.439C491.824 487.855 490.874 487.858 490.29 488.446L490.115 488.621C489.53 489.207 489.531 490.157 490.117 490.742ZM497.168 310.86C496.538 311.398 496.463 312.344 497 312.975L497.161 313.163C497.697 313.794 498.644 313.871 499.275 313.335C499.907 312.798 499.983 311.852 499.447 311.22L499.282 311.027C498.745 310.397 497.798 310.322 497.168 310.86ZM497.168 483.276C497.798 483.814 498.745 483.739 499.283 483.109L499.447 482.916C499.983 482.285 499.907 481.338 499.275 480.802C498.644 480.265 497.698 480.342 497.161 480.973L497 481.162C496.463 481.792 496.538 482.739 497.168 483.276ZM503.615 318.853C502.945 319.34 502.796 320.278 503.283 320.948L503.428 321.149C503.914 321.82 504.852 321.97 505.523 321.485C506.194 320.999 506.345 320.061 505.859 319.39L505.71 319.185C505.223 318.515 504.285 318.366 503.615 318.853ZM503.615 475.283C504.285 475.77 505.223 475.621 505.71 474.951L505.859 474.746C506.345 474.075 506.194 473.137 505.523 472.652C504.852 472.166 503.914 472.316 503.428 472.988L503.283 473.188C502.796 473.858 502.945 474.796 503.615 475.283ZM509.419 327.326C508.712 327.759 508.491 328.683 508.924 329.389L509.053 329.6C509.485 330.307 510.408 330.531 511.115 330.099C511.822 329.668 512.046 328.744 511.614 328.037L511.482 327.821C511.049 327.115 510.125 326.893 509.419 327.326ZM509.419 466.81C510.125 467.243 511.049 467.022 511.482 466.315L511.614 466.099C512.046 465.392 511.822 464.469 511.115 464.037C510.408 463.606 509.485 463.829 509.053 464.536L508.924 464.747C508.491 465.454 508.712 466.377 509.419 466.81ZM514.54 336.225C513.802 336.602 513.509 337.505 513.885 338.243L513.997 338.464C514.372 339.203 515.275 339.498 516.014 339.123C516.753 338.748 517.048 337.845 516.673 337.106L516.558 336.881C516.182 336.142 515.278 335.849 514.54 336.225ZM514.54 457.911C515.278 458.287 516.182 457.994 516.558 457.256L516.673 457.03C517.048 456.291 516.753 455.388 516.014 455.013C515.275 454.639 514.372 454.934 513.997 455.672L513.885 455.893C513.509 456.631 513.802 457.535 514.54 457.911ZM518.948 345.502C518.183 345.819 517.819 346.697 518.136 347.462L518.231 347.69C518.546 348.456 519.423 348.822 520.189 348.506C520.955 348.19 521.32 347.314 521.005 346.548L520.908 346.314C520.591 345.548 519.714 345.185 518.948 345.502ZM518.948 448.634C519.714 448.951 520.591 448.588 520.908 447.822L521.005 447.589C521.32 446.823 520.955 445.946 520.189 445.63C519.423 445.315 518.546 445.68 518.231 446.446L518.136 446.674C517.819 447.44 518.183 448.317 518.948 448.634ZM522.611 355.094C521.823 355.35 521.392 356.196 521.648 356.984L521.724 357.22C521.978 358.009 522.824 358.442 523.612 358.187C524.4 357.933 524.834 357.088 524.579 356.3L524.501 356.058C524.245 355.27 523.399 354.839 522.611 355.094ZM522.611 439.042C523.399 439.298 524.245 438.866 524.501 438.078L524.579 437.837C524.834 437.048 524.4 436.203 523.612 435.949C522.824 435.695 521.978 436.128 521.724 436.916L521.648 437.152C521.392 437.94 521.823 438.786 522.611 439.042ZM525.507 364.946C524.701 365.139 524.205 365.948 524.398 366.754L524.455 366.994C524.646 367.8 525.455 368.299 526.261 368.107C527.067 367.916 527.565 367.108 527.374 366.302L527.315 366.055C527.122 365.25 526.313 364.753 525.507 364.946ZM525.507 429.191C526.313 429.383 527.122 428.887 527.315 428.081L527.374 427.835C527.565 427.029 527.067 426.22 526.261 426.029C525.455 425.838 524.646 426.336 524.455 427.142L524.398 427.383C524.205 428.188 524.701 428.998 525.507 429.191ZM527.619 374.999C526.8 375.128 526.242 375.896 526.371 376.714L526.409 376.959C526.536 377.778 527.303 378.338 528.122 378.211C528.94 378.084 529.501 377.317 529.373 376.498L529.334 376.247C529.205 375.429 528.437 374.87 527.619 374.999ZM527.619 419.138C528.437 419.266 529.205 418.708 529.334 417.889L529.373 417.638C529.501 416.819 528.94 416.053 528.122 415.925C527.303 415.798 526.536 416.358 526.409 417.177L526.371 417.422C526.242 418.241 526.801 419.009 527.619 419.138ZM528.935 385.178C528.109 385.243 527.492 385.965 527.556 386.79L527.576 387.037C527.639 387.863 528.36 388.482 529.186 388.419C530.012 388.355 530.63 387.635 530.567 386.809L530.547 386.556C530.483 385.73 529.761 385.113 528.935 385.178ZM528.935 408.958C529.761 409.023 530.483 408.406 530.547 407.58L530.567 407.328C530.63 406.502 530.012 405.781 529.186 405.718C528.36 405.654 527.639 406.273 527.576 407.099L527.557 407.346C527.492 408.172 528.109 408.894 528.935 408.958ZM529.456 395.442C528.628 395.443 527.957 396.115 527.957 396.944L527.957 397.193C527.957 398.021 528.628 398.693 529.456 398.694C530.284 398.695 530.957 398.024 530.957 397.196L530.957 396.941C530.957 396.112 530.284 395.441 529.456 395.442Z" fill="#2BCDE4"/>
<path d="M522 245.5C522 368.936 421.936 469 298.5 469C175.064 469 75 368.936 75 245.5C75 122.064 175.064 22 298.5 22C421.936 22 522 122.064 522 245.5Z" fill="#F3FBFE"/>
<path d="M104.782 90.8462C104.237 90.8462 103.795 91.3283 103.795 91.9231C103.795 92.5178 104.237 93 104.782 93C105.327 93 105.769 92.5178 105.769 91.9231C105.769 91.3283 105.327 90.8462 104.782 90.8462Z" fill="#2BCDE4"/>
<path d="M137.718 15.2822C137.123 15.2822 136.641 15.7643 136.641 16.3591C136.641 16.9539 137.123 17.436 137.718 17.436C138.313 17.436 138.795 16.9539 138.795 16.3591C138.795 15.7643 138.313 15.2822 137.718 15.2822Z" fill="#2BCDE4"/>
<path fill-rule="evenodd" clip-rule="evenodd" d="M138.564 17.277C139.169 16.7106 139.2 15.7613 138.633 15.1568L138.554 15.0727C137.986 14.4696 137.037 14.4411 136.434 15.009C135.831 15.577 135.802 16.5263 136.37 17.1294L136.444 17.2082C137.01 17.8127 137.96 17.8435 138.564 17.277ZM131.954 11.1082C132.434 10.4326 132.275 9.49627 131.599 9.01678C131.536 8.97224 131.473 8.92785 131.41 8.88361C130.732 8.40749 129.797 8.57108 129.321 9.24902C128.845 9.92696 129.008 10.8625 129.686 11.3386C129.745 11.38 129.804 11.4215 129.863 11.4632C130.538 11.9427 131.475 11.7837 131.954 11.1082ZM124.144 6.33565C124.476 5.5767 124.13 4.69223 123.371 4.36013C123.301 4.32928 123.23 4.2986 123.16 4.26809C122.399 3.9398 121.516 4.29027 121.188 5.05087C120.86 5.81148 121.21 6.6942 121.971 7.02248C122.037 7.05101 122.103 7.07969 122.169 7.10853C122.928 7.44063 123.812 7.0946 124.144 6.33565ZM115.526 3.25638C115.695 2.44552 115.175 1.65062 114.365 1.48093C114.289 1.46518 114.214 1.44961 114.139 1.43422C113.327 1.2686 112.535 1.79236 112.369 2.60406C112.203 3.41576 112.727 4.20804 113.539 4.37366C113.575 4.38103 113.611 4.38844 113.647 4.3959C113.681 4.403 113.716 4.41014 113.75 4.41732C114.561 4.58701 115.356 4.06724 115.526 3.25638ZM106.459 2.00382C106.461 1.1754 105.791 0.502181 104.963 0.500151L104.847 0.500006L104.719 0.500182C103.891 0.502417 103.221 1.17581 103.223 2.00423C103.226 2.83266 103.899 3.50241 104.728 3.50017L104.847 3.50001L104.955 3.50014C105.784 3.50217 106.457 2.83225 106.459 2.00382ZM106.347 91.9231C106.347 91.0947 105.675 90.4231 104.847 90.4231L104.728 90.4229C103.899 90.4207 103.226 91.0904 103.223 91.9189C103.221 92.7473 103.891 93.4207 104.719 93.4229L104.847 93.4231C105.675 93.4231 106.347 92.7515 106.347 91.9231ZM96.4343 2.76408C96.2522 1.95592 95.4494 1.44839 94.6412 1.63048C94.5586 1.64911 94.4759 1.66796 94.3934 1.68703C93.5863 1.87359 93.0832 2.67914 93.2697 3.4863C93.4563 4.29344 94.2619 4.79653 95.069 4.60998C95.1461 4.59215 95.2234 4.57452 95.3007 4.5571C96.1088 4.37501 96.6164 3.57225 96.4343 2.76408ZM96.4343 91.159C96.6163 90.3508 96.1088 89.5481 95.3006 89.366C95.2234 89.3486 95.1461 89.331 95.069 89.3131C94.2619 89.1266 93.4563 89.6297 93.2697 90.4368C93.0832 91.244 93.5863 92.0495 94.3934 92.2361C94.4759 92.2551 94.5585 92.274 94.6412 92.2926C95.4494 92.4747 96.2522 91.9672 96.4343 91.159ZM86.827 88.1738C87.186 87.4272 86.8719 86.5309 86.1253 86.1719C86.0539 86.1375 85.9826 86.103 85.9114 86.0683C85.1668 85.7052 84.2688 86.0144 83.9057 86.759C83.5425 87.5036 83.8518 88.4016 84.5964 88.7647C84.6725 88.8018 84.7487 88.8388 84.8251 88.8755C85.5717 89.2345 86.468 88.9204 86.827 88.1738ZM86.827 5.74933C86.468 5.00274 85.5717 4.68857 84.8251 5.04761C84.7805 5.06904 84.736 5.09054 84.6915 5.11211C84.6598 5.12751 84.6281 5.14293 84.5964 5.15839C83.8518 5.52154 83.5425 6.41953 83.9057 7.16412C84.2688 7.90872 85.1668 8.21795 85.9114 7.8548C85.9826 7.82009 86.0539 7.78556 86.1253 7.75123C86.8719 7.39219 87.186 6.49592 86.827 5.74933ZM78.1319 10.8134C77.6155 10.1656 76.6717 10.059 76.0239 10.5754C75.9577 10.6282 75.8917 10.6811 75.8258 10.7342C75.1808 11.2541 75.0794 12.1984 75.5993 12.8434C76.1192 13.4884 77.0635 13.5898 77.7085 13.0699C77.7701 13.0202 77.8319 12.9707 77.8939 12.9213C78.5417 12.405 78.6482 11.4612 78.1319 10.8134ZM78.1318 83.1097C78.6482 82.4619 78.5417 81.5181 77.8938 81.0018C77.8319 80.9524 77.7701 80.9029 77.7085 80.8532C77.0635 80.3333 76.1192 80.4347 75.5993 81.0797C75.0794 81.7247 75.1808 82.669 75.8258 83.1889C75.8917 83.242 75.9577 83.2949 76.0239 83.3477C76.6717 83.8641 77.6155 83.7575 78.1318 83.1097ZM70.779 76.241C71.4259 75.7235 71.5308 74.7796 71.0134 74.1326C70.9639 74.0708 70.9146 74.0088 70.8654 73.9467C70.3515 73.297 69.4081 73.1869 68.7584 73.7009C68.1087 74.2148 67.9986 75.1582 68.5126 75.8079C68.5651 75.8743 68.6178 75.9405 68.6706 76.0066C69.1881 76.6535 70.1321 76.7584 70.779 76.241ZM70.779 17.6821C70.1321 17.1646 69.1881 17.2696 68.6707 17.9165C68.6178 17.9826 68.5651 18.0488 68.5126 18.1152C67.9986 18.7649 68.1087 19.7083 68.7584 20.2222C69.4082 20.7362 70.3515 20.6261 70.8655 19.9764C70.9146 19.9143 70.9639 19.8523 71.0134 19.7905C71.5308 19.1435 71.4259 18.1996 70.779 17.6821ZM65.129 26.0087C64.3833 25.6478 63.4862 25.9598 63.1254 26.7054C63.0885 26.7816 63.0518 26.8579 63.0153 26.9344C62.6585 27.682 62.9754 28.5774 63.723 28.9342C64.4707 29.291 65.366 28.9741 65.7228 28.2265C65.7569 28.155 65.7912 28.0836 65.8257 28.0124C66.1866 27.2667 65.8747 26.3696 65.129 26.0087ZM65.129 67.9144C65.8747 67.5535 66.1866 66.6564 65.8257 65.9107C65.7912 65.8395 65.7569 65.7681 65.7228 65.6966C65.366 64.949 64.4707 64.6321 63.723 64.9889C62.9754 65.3457 62.6585 66.2411 63.0153 66.9887C63.0518 67.0651 63.0885 67.1415 63.1253 67.2177C63.4862 67.9633 64.3833 68.2753 65.129 67.9144ZM61.4754 58.5408C62.2828 58.3556 62.7873 57.5508 62.6021 56.7434C62.5844 56.6662 62.5669 56.5889 62.5496 56.5116C62.3688 55.7031 61.5669 55.1943 60.7584 55.375C59.9499 55.5558 59.4411 56.3577 59.6219 57.1662C59.6298 57.2018 59.6378 57.2374 59.6459 57.273C59.6565 57.3201 59.6672 57.3671 59.678 57.4141C59.8632 58.2215 60.6679 58.726 61.4754 58.5408ZM61.4754 35.3823C60.6679 35.1971 59.8632 35.7016 59.678 36.509C59.6591 36.5916 59.6404 36.6742 59.6219 36.7569C59.4411 37.5654 59.95 38.3673 60.7584 38.5481C61.5669 38.7288 62.3688 38.22 62.5496 37.4115C62.5592 37.3683 62.569 37.3251 62.5787 37.282C62.5865 37.2479 62.5943 37.2138 62.6021 37.1797C62.7873 36.3723 62.2828 35.5675 61.4754 35.3823ZM60.0043 48.5851C60.8327 48.5829 61.5025 47.9095 61.5003 47.0811L61.5001 46.9615L61.5003 46.842C61.5025 46.0136 60.8327 45.3402 60.0043 45.338C59.1759 45.3358 58.5025 46.0055 58.5003 46.834L58.5001 46.9615L58.5003 47.0891C58.5025 47.9176 59.1759 48.5873 60.0043 48.5851Z" fill="#2BCDE4"/>
<path fill-rule="evenodd" clip-rule="evenodd" d="M91 374C113.091 374 131 356.091 131 334C131 311.909 113.091 294 91 294C68.9086 294 51 311.909 51 334C51 356.091 68.9086 374 91 374ZM91 377C114.748 377 134 357.748 134 334C134 310.252 114.748 291 91 291C67.2518 291 48 310.252 48 334C48 357.748 67.2518 377 91 377Z" fill="#2BCDE4"/>
<path fill-rule="evenodd" clip-rule="evenodd" d="M569.5 124C577.508 124 584 117.508 584 109.5C584 101.492 577.508 95 569.5 95C561.492 95 555 101.492 555 109.5C555 117.508 561.492 124 569.5 124ZM569.5 128C579.717 128 588 119.717 588 109.5C588 99.2827 579.717 91 569.5 91C559.283 91 551 99.2827 551 109.5C551 119.717 559.283 128 569.5 128Z" fill="#1868B7"/>
<path d="M443 447.5C443 463.24 430.24 476 414.5 476C398.76 476 386 463.24 386 447.5C386 431.76 398.76 419 414.5 419C430.24 419 443 431.76 443 447.5Z" fill="#2BCDE4"/>
<path d="M511 16C486.147 16 466 36.1472 466 61H556C556 36.1472 535.853 16 511 16Z" fill="#2BCDE4"/>
<path d="M28 433C43.464 433 56 420.464 56 405L-2.44784e-06 405C-1.09593e-06 420.464 12.536 433 28 433Z" fill="#1868B7"/>
<path d="M333.61 327.378L297.018 290.786L393.643 194.162C403.747 184.057 420.13 184.057 430.234 194.162V194.162C440.339 204.266 440.339 220.649 430.234 230.753L333.61 327.378Z" fill="#15B2E5"/>
<path d="M428.934 224.994L372.843 281.085L357.015 265.258C341.526 249.768 341.526 224.655 357.015 209.166V209.166C372.504 193.677 397.617 193.677 413.106 209.166L428.934 224.994Z" fill="#1868B7"/>
<path d="M444.769 263.042C447.967 266.24 447.967 271.426 444.769 274.624V274.624C441.57 277.822 436.385 277.822 433.187 274.624L392.007 233.444L403.589 221.862L444.769 263.042Z" fill="#1868B7"/>
<path d="M442.026 282.514C445.224 285.712 445.224 290.898 442.026 294.096V294.096C438.828 297.294 433.642 297.294 430.444 294.096L380.9 244.552L392.482 232.97L442.026 282.514Z" fill="#1868B7"/>
<path d="M427.702 290.404C430.9 293.602 430.9 298.788 427.702 301.986V301.986C424.504 305.184 419.318 305.184 416.12 301.986L369.793 255.659L381.374 244.077L427.702 290.404Z" fill="#1868B7"/>
<path d="M400.508 285.425C403.707 288.623 403.707 293.809 400.508 297.007V297.007C397.31 300.205 392.125 300.205 388.927 297.007L358.685 266.766L370.267 255.184L400.508 285.425Z" fill="#1868B7"/>
<path opacity="0.2" d="M372.288 280.53L388.949 297.191C392.016 300.258 396.989 300.258 400.056 297.191L377.842 274.976C376.308 273.443 373.822 273.443 372.288 274.976C370.755 276.51 370.755 278.996 372.288 280.53Z" fill="#04111D"/>
<path opacity="0.3" d="M383.395 269.423L416.161 302.189C419.229 305.256 424.201 305.256 427.269 302.189L388.949 263.869C387.415 262.336 384.929 262.336 383.395 263.869C381.862 265.403 381.862 267.889 383.395 269.423Z" fill="#04111D"/>
<path opacity="0.2" d="M394.502 258.316L430.601 294.414C433.668 297.481 438.641 297.481 441.708 294.414L400.056 252.762C398.522 251.228 396.036 251.228 394.502 252.762C392.969 254.296 392.969 256.782 394.502 258.316Z" fill="#04111D"/>
<path opacity="0.2" d="M405.557 247.63L432.903 274.976C436.101 278.175 441.286 278.175 444.484 274.976L411.347 241.839C409.748 240.24 407.156 240.24 405.557 241.839C403.957 243.439 403.957 246.031 405.557 247.63Z" fill="#04111D"/>
<path d="M439.238 235.298C439.543 235.602 439.543 236.096 439.238 236.401V236.401C433.146 242.493 423.269 242.493 417.177 236.401L403.114 222.337L414.696 210.755L439.238 235.298Z" fill="#1868B7"/>
<path d="M389.504 205.556L352.85 242.21L318.418 207.778L355.072 171.124L389.504 205.556Z" fill="#1868B7"/>
<path d="M357.997 165.164C361.903 169.069 361.903 175.4 357.997 179.306L326.045 211.258C322.139 215.164 315.808 215.164 311.902 211.258L251.497 150.853C238.768 138.125 238.768 117.487 251.497 104.758V104.758C264.226 92.0296 284.863 92.0296 297.592 104.758L357.997 165.164Z" fill="#2BCDE4"/>
<path opacity="0.2" fill-rule="evenodd" clip-rule="evenodd" d="M405.313 225.203C404.073 223.586 404.193 221.261 405.673 219.782C407.283 218.172 409.894 218.172 411.504 219.782L432.267 240.544C426.948 242.139 420.945 240.835 416.743 236.633L405.313 225.203Z" fill="#04111D"/>
<path d="M274.836 114.097L330.928 170.188L315.1 186.016C299.611 201.505 274.498 201.505 259.009 186.016V186.016C243.519 170.527 243.519 145.414 259.009 129.924L274.836 114.097Z" fill="#2081E2"/>
<path d="M312.885 98.2626C316.083 95.0644 321.268 95.0644 324.467 98.2626V98.2626C327.665 101.461 327.665 106.646 324.467 109.844L283.287 151.024L271.705 139.442L312.885 98.2626Z" fill="#2081E2"/>
<path d="M332.357 101.005C335.555 97.807 340.74 97.807 343.938 101.005V101.005C347.137 104.204 347.137 109.389 343.938 112.587L294.394 162.132L282.812 150.55L332.357 101.005Z" fill="#2081E2"/>
<path d="M340.247 115.329C343.445 112.131 348.63 112.131 351.829 115.329V115.329C355.027 118.528 355.027 123.713 351.829 126.911L305.501 173.239L293.919 161.657L340.247 115.329Z" fill="#2081E2"/>
<path d="M335.268 142.523C338.466 139.325 343.652 139.325 346.85 142.523V142.523C350.048 145.721 350.048 150.906 346.85 154.105L316.609 184.346L305.027 172.764L335.268 142.523Z" fill="#2081E2"/>
<path opacity="0.2" d="M330.373 170.744L347.034 154.083C350.101 151.016 350.101 146.043 347.034 142.976L324.819 165.19C323.286 166.724 323.286 169.21 324.819 170.744C326.353 172.277 328.839 172.277 330.373 170.744Z" fill="#04111D"/>
<path opacity="0.2" d="M319.265 159.636L352.032 126.87C355.099 123.803 355.099 118.83 352.032 115.763L313.712 154.083C312.178 155.616 312.178 158.103 313.712 159.636C315.245 161.17 317.732 161.17 319.265 159.636Z" fill="#04111D"/>
<path opacity="0.2" d="M308.158 148.529L344.257 112.431C347.324 109.364 347.324 104.391 344.257 101.323L302.605 142.975C301.071 144.509 301.071 146.996 302.605 148.529C304.138 150.063 306.625 150.063 308.158 148.529Z" fill="#04111D"/>
<path opacity="0.2" d="M297.473 137.474L324.819 110.128C328.017 106.93 328.017 101.745 324.819 98.5464L291.682 131.683C290.083 133.282 290.083 135.875 291.682 137.474C293.281 139.073 295.874 139.073 297.473 137.474Z" fill="#04111D"/>
<path d="M285.14 103.793C285.445 103.488 285.939 103.488 286.243 103.793V103.793C292.335 109.885 292.335 119.762 286.243 125.854L272.18 139.917L260.598 128.335L285.14 103.793Z" fill="#2081E2"/>
<path d="M255.399 153.527L292.053 190.181L190.978 291.256C180.856 301.378 164.446 301.378 154.324 291.256V291.256C144.202 281.135 144.202 264.724 154.324 254.603L255.399 153.527Z" fill="#2081E2"/>
<path opacity="0.2" fill-rule="evenodd" clip-rule="evenodd" d="M275.044 137.719C273.427 138.958 271.104 138.837 269.624 137.358C268.014 135.748 268.014 133.137 269.624 131.527L290.387 110.764C291.981 116.083 290.677 122.086 286.476 126.287L275.044 137.719Z" fill="#04111D"/>
<path d="M170.655 269.164L226.746 213.072L242.574 228.9C258.063 244.389 258.063 269.502 242.574 284.991V284.991C227.085 300.481 201.972 300.481 186.483 284.991L170.655 269.164Z" fill="#2BCDE4"/>
<path d="M154.821 231.116C151.622 227.917 151.622 222.732 154.821 219.534V219.534C158.019 216.336 163.204 216.336 166.403 219.534L207.582 260.714L196.001 272.295L154.821 231.116Z" fill="#2BCDE4"/>
<path d="M157.563 211.644C154.365 208.445 154.365 203.26 157.563 200.062V200.062C160.762 196.864 165.947 196.864 169.145 200.062L218.69 249.606L207.108 261.188L157.563 211.644Z" fill="#2BCDE4"/>
<path d="M171.888 203.754C168.69 200.555 168.69 195.37 171.888 192.172V192.172C175.086 188.973 180.272 188.974 183.47 192.172L229.797 238.499L218.215 250.081L171.888 203.754Z" fill="#2BCDE4"/>
<path d="M199.081 208.732C195.883 205.534 195.883 200.349 199.081 197.15V197.15C202.279 193.952 207.465 193.952 210.663 197.15L240.904 227.392L229.322 238.974L199.081 208.732Z" fill="#2BCDE4"/>
<path opacity="0.2" d="M227.301 213.628L210.64 196.967C207.573 193.9 202.6 193.9 199.533 196.967L221.748 219.181C223.281 220.715 225.768 220.715 227.301 219.181C228.835 217.648 228.835 215.161 227.301 213.628Z" fill="#04111D"/>
<path opacity="0.2" d="M216.194 224.735L183.428 191.969C180.361 188.901 175.388 188.901 172.321 191.969L210.641 230.288C212.174 231.822 214.661 231.822 216.194 230.288C217.728 228.755 217.728 226.268 216.194 224.735Z" fill="#04111D"/>
<path opacity="0.2" d="M205.087 235.842L168.989 199.744C165.921 196.676 160.949 196.676 157.881 199.744L199.533 241.396C201.067 242.929 203.553 242.929 205.087 241.396C206.621 239.862 206.621 237.376 205.087 235.842Z" fill="#04111D"/>
<path opacity="0.2" d="M194.032 246.527L166.686 219.181C163.488 215.983 158.303 215.983 155.104 219.181L188.241 252.318C189.841 253.917 192.433 253.917 194.032 252.318C195.631 250.719 195.631 248.126 194.032 246.527Z" fill="#04111D"/>
<path d="M160.351 258.86C160.047 258.555 160.047 258.061 160.351 257.757V257.757C166.443 251.665 176.32 251.665 182.412 257.757L196.476 271.82L184.894 283.402L160.351 258.86Z" fill="#2BCDE4"/>
<path d="M210.085 288.601L246.739 251.947L266.732 271.94L230.078 308.594L210.085 288.601Z" fill="#2BCDE4"/>
<path d="M226.597 317.331C222.692 313.426 222.692 307.094 226.597 303.189L260.772 269.015C264.677 265.11 271.009 265.11 274.914 269.015L347.537 341.638C360.879 354.98 360.879 376.612 347.537 389.954V389.954C334.195 403.297 312.563 403.297 299.221 389.954L226.597 317.331Z" fill="#1868B7"/>
<path opacity="0.2" fill-rule="evenodd" clip-rule="evenodd" d="M193.623 269.169C194.862 270.786 194.742 273.11 193.263 274.59C191.652 276.2 189.042 276.2 187.431 274.59L166.669 253.827C171.988 252.233 177.99 253.537 182.192 257.738L193.623 269.169Z" fill="#04111D"/>
<path d="M309.27 371.784L253.178 315.693L269.006 299.865C284.495 284.376 309.608 284.376 325.097 299.865V299.865C340.587 315.354 340.586 340.467 325.097 355.956L309.27 371.784Z" fill="#15B2E5"/>
<path d="M271.221 387.618C268.023 390.816 262.837 390.816 259.639 387.618V387.618C256.441 384.42 256.441 379.234 259.639 376.036L300.819 334.856L312.401 346.438L271.221 387.618Z" fill="#15B2E5"/>
<path d="M251.749 384.876C248.551 388.074 243.366 388.074 240.168 384.876V384.876C236.969 381.677 236.969 376.492 240.168 373.294L289.712 323.749L301.294 335.331L251.749 384.876Z" fill="#15B2E5"/>
<path d="M243.859 370.551C240.661 373.749 235.476 373.749 232.277 370.551V370.551C229.079 367.353 229.079 362.168 232.277 358.969L278.605 312.642L290.187 324.224L243.859 370.551Z" fill="#15B2E5"/>
<path d="M248.838 343.358C245.64 346.556 240.454 346.556 237.256 343.358V343.358C234.058 340.16 234.058 334.974 237.256 331.776L267.497 301.535L279.079 313.117L248.838 343.358Z" fill="#15B2E5"/>
<path opacity="0.2" d="M253.734 315.137L237.073 331.798C234.006 334.865 234.006 339.838 237.073 342.905L259.287 320.691C260.821 319.157 260.821 316.671 259.287 315.137C257.754 313.604 255.267 313.604 253.734 315.137Z" fill="#04111D"/>
<path opacity="0.2" d="M264.841 326.245L232.075 359.011C229.008 362.078 229.008 367.051 232.075 370.118L270.395 331.798C271.928 330.265 271.928 327.778 270.395 326.245C268.861 324.711 266.375 324.711 264.841 326.245Z" fill="#04111D"/>
<path opacity="0.2" d="M275.948 337.352L239.85 373.45C236.782 376.517 236.782 381.49 239.85 384.557L281.502 342.905C283.035 341.372 283.035 338.885 281.502 337.352C279.968 335.818 277.482 335.818 275.948 337.352Z" fill="#04111D"/>
<path opacity="0.2" d="M286.633 348.406L259.287 375.752C256.089 378.951 256.089 384.136 259.287 387.334L292.424 354.197C294.023 352.598 294.023 350.006 292.424 348.406C290.825 346.807 288.232 346.807 286.633 348.406Z" fill="#04111D"/>
<path d="M298.966 382.088C298.661 382.392 298.167 382.392 297.863 382.088V382.088C291.771 375.996 291.771 366.119 297.863 360.027L311.926 345.964L323.508 357.545L298.966 382.088Z" fill="#15B2E5"/>
<path opacity="0.2" fill-rule="evenodd" clip-rule="evenodd" d="M309.061 348.163C310.677 346.923 313.002 347.043 314.481 348.523C316.092 350.133 316.092 352.744 314.481 354.354L293.719 375.116C292.125 369.797 293.429 363.795 297.63 359.593L309.061 348.163Z" fill="#04111D"/>
</svg>
