<svg xmlns="http://www.w3.org/2000/svg" xmlns:xlink="http://www.w3.org/1999/xlink" id="Layer_1" x="0" y="0" version="1.1" viewBox="0 0 36 36" xml:space="preserve" style="enable-background:new 0 0 36 36"><style type="text/css">.st0{fill:#8a939b}</style><path d="M0,17.5v17.5h17.6h17.6v-3.2v-3.2h-1.2h-1.2v2.2v2.2H17.6H2.4V17.5V2.2h15.3h15.3v4v4h1.2h1.2V5.1V0H17.6H0	V17.5z" class="st0"/><path d="M19.4,13v1.5h1h1v5v5h1.5h1.5v-5.3c0-7.1-0.1-7.4-3.4-7.6l-1.5-0.1V13z" class="st0"/><path d="M28.7,14.5c-1,0.4-1.7,0.9-2.2,2c-0.5,0.9-0.5,1.3-0.5,2.9c0,2.2,0.5,3.4,1.5,4.2c1,0.8,1.8,0.9,5,0.9h3.1v-1.3	V22l-3.1-0.1l-3.1-0.1l-0.5-0.5c-0.4-0.5-0.5-0.8-0.5-1.8c0-1.5,0.3-2.1,0.9-2.4c0.3-0.1,1.6-0.2,3.3-0.2h2.8v-1.3v-1.3l-3.2,0	C30.7,14.3,29.1,14.4,28.7,14.5z" class="st0"/></svg>