<svg xmlns="http://www.w3.org/2000/svg" xmlns:xlink="http://www.w3.org/1999/xlink" id="Layer_1" x="0" y="0" version="1.1" viewBox="0 0 150 29" xml:space="preserve" style="enable-background:new 0 0 150 29"><style type="text/css">.st0{fill:#8a939b}.st1{fill:#fff}</style><path d="M0.3,2.6C0,3.4,0,4.5,0,6.6v7.9v7.9c0,2.1,0,3.2,0.3,4c0.4,1,1.2,1.8,2.3,2.3c0.8,0.3,1.9,0.3,4,0.3h7.9h7.9	c2.1,0,3.2,0,4-0.3c1-0.4,1.8-1.2,2.3-2.3c0.3-0.8,0.3-1.9,0.3-4v-7.9V6.6c0-2.1,0-3.2-0.3-4c-0.4-1-1.2-1.8-2.3-2.3	C25.5,0,24.4,0,22.3,0h-7.9H6.6c-2.1,0-3.2,0-4,0.3C1.6,0.8,0.8,1.6,0.3,2.6z" class="st0"/><path d="M19.1,12.4c1.4,0,2.6-1.2,2.6-2.6c0-1.4-1.2-2.6-2.6-2.6s-2.6,1.2-2.6,2.6C16.5,11.3,17.7,12.4,19.1,12.4z" class="st1"/><path d="M9.8,12.4c1.4,0,2.6-1.2,2.6-2.6c0-1.4-1.2-2.6-2.6-2.6S7.2,8.4,7.2,9.8C7.2,11.3,8.4,12.4,9.8,12.4z" class="st1"/><path d="M19.1,21.7c1.4,0,2.6-1.2,2.6-2.6s-1.2-2.6-2.6-2.6s-2.6,1.2-2.6,2.6S17.7,21.7,19.1,21.7z" class="st1"/><path d="M9.8,21.7c1.4,0,2.6-1.2,2.6-2.6s-1.2-2.6-2.6-2.6s-2.6,1.2-2.6,2.6S8.4,21.7,9.8,21.7z" class="st1"/><path d="M45.7,23.2c3.5,0,5.6-1.7,5.6-4.6c0-2.2-1.5-3.8-3.7-4v-0.1c1.6-0.3,2.9-1.8,2.9-3.6c0-2.5-1.9-4.1-4.8-4.1	h-6.5v16.3H45.7z M41.7,8.9H45c1.8,0,2.9,0.8,2.9,2.4c0,1.6-1.2,2.5-3.4,2.5h-2.8L41.7,8.9L41.7,8.9z M41.7,21.1v-5.4H45	c2.4,0,3.7,0.9,3.7,2.7s-1.2,2.7-3.5,2.7H41.7L41.7,21.1z" class="st0"/><path d="M53.5,23.2h2.4V6.8h-2.4V23.2z" class="st0"/><path d="M63.8,23.4c3.4,0,5.6-2.3,5.6-6.2c0-3.8-2.3-6.2-5.6-6.2c-3.4,0-5.6,2.3-5.6,6.2C58.1,21,60.4,23.4,63.8,23.4z M63.8,21.4c-1.9,0-3.2-1.5-3.2-4.2c0-2.6,1.2-4.1,3.2-4.1c1.9,0,3.2,1.5,3.2,4.1C66.9,19.9,65.7,21.4,63.8,21.4z" class="st0"/><path d="M81.7,15.4c-0.2-2.3-2.1-4.3-5.1-4.3c-3.4,0-5.6,2.4-5.6,6.2c0,3.9,2.2,6.2,5.6,6.2c2.9,0,4.9-1.7,5.1-4.2h-2.4	c-0.3,1.4-1.3,2.2-2.8,2.2c-1.9,0-3.2-1.5-3.2-4.1c0-2.6,1.2-4.1,3.1-4.1c1.6,0,2.5,1,2.8,2.3L81.7,15.4L81.7,15.4z" class="st0"/><path d="M86.3,16.3l0-9.5h-2.4v16.3h2.4v-4.3l1-1l4,5.3h2.8L89,16.4l4.9-5.1h-2.9L86.3,16.3z" class="st0"/><path d="M95.1,14.6c0,1.7,1.1,2.8,3.4,3.3l1.9,0.4c1.3,0.3,1.7,0.7,1.7,1.5c0,1-0.9,1.6-2.4,1.6c-1.5,0-2.3-0.6-2.6-1.9	h-2.4c0.2,2.3,2,3.7,5,3.7c2.8,0,4.8-1.5,4.8-3.7c0-1.7-0.9-2.7-3.4-3.2L99.3,16c-1.3-0.3-1.8-0.8-1.8-1.5c0-0.9,0.9-1.6,2.2-1.6	c1.4,0,2.2,0.7,2.4,1.9h2.3c-0.1-2.2-1.9-3.7-4.6-3.7C96.9,11,95.1,12.5,95.1,14.6z" class="st0"/><path d="M107.4,8.4v2.8h-1.7v1.9h1.7V20c0,2.3,0.9,3.2,3.4,3.2c0.5,0,1.1,0,1.4-0.1v-1.9c-0.1,0-0.5,0-0.8,0	c-1,0-1.4-0.5-1.4-1.5v-6.6h2.3v-1.9h-2.3V8.4H107.4z" class="st0"/><path d="M118.4,21.4c-1.3,0-2.2-0.7-2.2-1.7c0-1,0.8-1.7,2.3-1.8l2.9-0.2v0.9C121.4,20.2,120.1,21.4,118.4,21.4z M117.7,23.4c1.6,0,3.1-0.8,3.8-2.2h0v2h2.3V15c0-2.4-1.8-3.9-4.7-3.9c-2.9,0-4.8,1.6-4.9,3.7h2.3c0.2-1.1,1.1-1.7,2.5-1.7	c1.5,0,2.4,0.8,2.4,2.1V16l-3.3,0.2c-2.8,0.1-4.4,1.4-4.4,3.5C113.7,21.9,115.3,23.4,117.7,23.4z" class="st0"/><path d="M136.6,15.4c-0.2-2.3-2.1-4.3-5.1-4.3c-3.4,0-5.6,2.4-5.6,6.2c0,3.9,2.2,6.2,5.6,6.2c2.9,0,4.9-1.7,5.1-4.2	h-2.4c-0.3,1.4-1.3,2.2-2.8,2.2c-1.9,0-3.2-1.5-3.2-4.1c0-2.6,1.2-4.1,3.1-4.1c1.6,0,2.5,1,2.8,2.3L136.6,15.4L136.6,15.4z" class="st0"/><path d="M141.2,16.3l0-9.5h-2.4v16.3h2.4v-4.3l1-1l4.1,5.3h2.8l-5.1-6.8l4.9-5.1H146L141.2,16.3z" class="st0"/></svg>