<svg xmlns="http://www.w3.org/2000/svg" xmlns:xlink="http://www.w3.org/1999/xlink" id="Layer_1" x="0" y="0" version="1.1" viewBox="0 0 112 25" xml:space="preserve" style="enable-background:new 0 0 112 25"><style type="text/css">.st0{fill-rule:evenodd;clip-rule:evenodd;fill:#8a939b}</style><path d="M7.2,24.9c-3.6,0-7.2-2.6-7.2-8.5c0-5.9,3.5-8.5,7.2-8.5c1.8,0,3.2,0.5,4.2,1.1l-1.1,2.4	c-0.7-0.5-1.7-0.8-2.7-0.8c-2.2,0-4.2,1.7-4.2,5.7c0,4,2.1,5.8,4.2,5.8c1,0,2-0.3,2.7-0.8l1.1,2.5C10.3,24.5,9,24.9,7.2,24.9z" class="st0"/><path d="M19.7,24.9c-4.6,0-7.2-3.7-7.2-8.5c0-4.8,2.5-8.5,7.2-8.5c4.6,0,7.2,3.6,7.2,8.5C26.9,21.3,24.3,24.9,19.7,24.9	z M19.7,10.6c-2.6,0-3.8,2.3-3.8,5.8c0,3.5,1.3,5.8,3.8,5.8c2.6,0,3.8-2.3,3.8-5.8C23.5,12.9,22.3,10.6,19.7,10.6z" class="st0"/><path d="M31.3,5.3c-1.1,0-2-0.8-2-1.9s0.9-1.9,2-1.9c1.1,0,2,0.8,2,1.9S32.4,5.3,31.3,5.3z M29.6,8.3H33v16.3h-3.3V8.3z" class="st0"/><path d="M46.1,24.6V13.7c0-1.9-1.2-3.1-3.4-3.1c-1.2,0-2.3,0.2-3,0.5v13.5h-3.3V9.1c1.6-0.7,3.7-1.2,6.3-1.2	c4.6,0,6.8,2,6.8,5.4v11.2H46.1z" class="st0"/><path d="M58.2,24.9c-2.1,0-4.2-0.5-5.5-1.2V0.8H56v7.9C56.8,8.3,58.1,8,59.2,8c4.2,0,7.1,3,7.1,8	C66.2,22.2,63.1,24.9,58.2,24.9z M58.6,10.6c-0.9,0-2,0.2-2.6,0.5v10.7c0.5,0.2,1.4,0.4,2.4,0.4c2.6,0,4.6-1.8,4.6-6	C62.9,12.7,61.2,10.6,58.6,10.6z" class="st0"/><path d="M75.2,24.9c-4.7,0-7.1-1.9-7.1-5.1c0-4.5,4.8-5.4,9.8-5.6v-1c0-2.1-1.4-2.8-3.5-2.8c-1.5,0-3.4,0.5-4.5,1	l-0.8-2.3c1.3-0.6,3.5-1.2,5.7-1.2c3.9,0,6.3,1.5,6.3,5.5v10.3C79.9,24.4,77.5,24.9,75.2,24.9z M78,16.4c-3.3,0.2-6.7,0.5-6.7,3.4	c0,1.7,1.3,2.8,3.8,2.8c1.1,0,2.3-0.2,2.8-0.4V16.4z" class="st0"/><path d="M88.6,24.9c-1.9,0-3.9-0.5-5.1-1.2l1.1-2.5c0.8,0.5,2.6,1.1,3.9,1.1c1.8,0,3-0.9,3-2.2c0-1.5-1.2-2.1-2.9-2.7	c-2.2-0.8-4.6-1.8-4.6-4.9c0-2.7,2.1-4.6,5.7-4.6c2,0,3.6,0.5,4.8,1.2l-1,2.3c-0.7-0.5-2.2-1-3.4-1c-1.7,0-2.7,0.9-2.7,2.1	c0,1.5,1.2,2,2.8,2.6c2.3,0.8,4.8,1.8,4.8,5C94.9,23,92.6,24.9,88.6,24.9z" class="st0"/><path d="M111,16.4l-10.8,1.5c0.3,2.9,2.2,4.4,5,4.4c1.6,0,3.4-0.4,4.5-1l1,2.5c-1.3,0.7-3.5,1.2-5.7,1.2	c-5.1,0-8-3.3-8-8.5c0-5,2.8-8.5,7.4-8.5c4.2,0,6.8,2.8,6.8,7.2C111,15.5,111,15.9,111,16.4z M104.2,10.4c-2.5,0-4.2,1.9-4.3,5.3	l7.9-1.1C107.8,11.7,106.4,10.4,104.2,10.4z" class="st0"/></svg>