<svg xmlns="http://www.w3.org/2000/svg" xmlns:xlink="http://www.w3.org/1999/xlink" id="Layer_1" x="0" y="0" version="1.1" viewBox="0 0 87 25" xml:space="preserve" style="enable-background:new 0 0 87 25"><style type="text/css">.st0{fill:#8a939b}</style><path d="M0,10.2v9.4h3.8c4.6,0,5.2,0,6.5-0.4c2.1-0.5,3.8-1.6,4.9-3.1c0.5-0.7,0.9-1.5,1.2-2.3c0.8-2.2,0.7-5.3-0.2-7.5	C15.2,3.5,13,1.7,9.9,1.1C8.8,0.8,8.8,0.8,4.3,0.8L0,0.8V10.2z M8.8,4.2c1.5,0.3,2.6,1,3.4,2c1.3,1.8,1.6,5,0.5,7.1	c-0.8,1.5-2,2.4-3.9,2.9c-0.4,0.1-0.5,0.1-2.8,0.1l-2.4,0v-6.1V4.1l2.3,0C8.2,4.1,8.3,4.2,8.8,4.2z M23.3,6.7	c-0.8,0.1-1.5,0.3-2.2,0.6c-1.1,0.5-1.9,1.4-2.4,2.5c-0.2,0.4-0.3,0.8-0.3,0.8c0,0,0.6,0.2,1.4,0.4c0.8,0.2,1.4,0.4,1.5,0.4	c0.1,0,0.1-0.1,0.2-0.3c0.4-1.1,1.3-1.8,2.6-1.8c0.9,0,1.5,0.2,2,0.7c0.4,0.4,0.6,0.8,0.6,1.7c0,0.6,0,0.6,0,0.6	c0,0-0.4-0.1-0.8-0.2c-1.2-0.3-1.5-0.3-2.5-0.3c-1.2,0-2,0.1-2.8,0.5c-1.3,0.6-1.9,1.6-2.1,3c-0.1,1.3,0.2,2.5,1.1,3.3	c1,0.9,2.4,1.3,4,1.1c1.4-0.2,2.4-0.8,3.1-1.8l0.2-0.3l0,1l0,1h1.6h1.6l0-4.4l0-4.4L30,10.3c-0.5-2-1.8-3.1-4.1-3.6	C25.5,6.7,23.7,6.6,23.3,6.7z M25.2,14.3c0.2,0,0.7,0.2,1,0.3c0.7,0.2,0.7,0.2,0.6,0.7c-0.1,0.9-0.8,1.6-1.7,1.8	c-0.3,0.1-1.2,0.1-1.6,0.1c-0.6-0.1-1.1-0.4-1.3-0.9c-0.1-0.3-0.2-0.8-0.1-1.1c0.1-0.5,0.6-0.8,1.2-1C23.8,14.2,24.7,14.2,25.2,14.3	z M38.9,6.7c-1.2,0.2-2.3,0.9-3.1,1.7c-0.1,0.1-0.2,0.3-0.3,0.3c0,0,0-0.4,0-0.9V6.9h-1.7h-1.7v9v9h1.7h1.7l0-3.5l0-3.5l0.2,0.2	c0.8,1.1,2.3,1.7,4,1.6c2-0.1,3.7-1,4.8-2.5c1.5-2.3,1.5-5.9-0.1-8.2c-0.3-0.4-0.9-1-1.3-1.3c-0.6-0.4-1.4-0.8-2.3-1	C40.6,6.6,39.3,6.6,38.9,6.7z M39.8,9.7c0.9,0.2,1.7,0.9,2.1,1.7c0.3,0.6,0.5,1.5,0.4,2.3c-0.1,1.5-1,2.6-2.3,3	c-0.3,0.1-0.4,0.1-0.9,0.1c-0.7,0-1.1-0.1-1.7-0.4c-0.3-0.2-0.5-0.3-0.8-0.6c-0.3-0.3-0.4-0.4-0.6-0.8c-0.4-0.7-0.5-1.5-0.4-2.3	c0.2-1.7,1.1-2.9,2.7-3.2C38.5,9.6,39.4,9.6,39.8,9.7z M54,6.7c-0.7,0.1-1.5,0.4-2.1,0.9c-0.3,0.2-0.9,0.7-1.1,1l-0.1,0.2V7.8V6.9	H49h-1.7v9v9h1.7h1.7v-3.4V18l0.2,0.2c0.6,0.8,1.5,1.3,2.6,1.5c0.5,0.1,1.8,0.1,2.3,0c1.2-0.2,2.3-0.8,3.1-1.6	c1.3-1.3,1.9-3,1.8-5.2c-0.1-2-0.7-3.6-1.9-4.7c-1.1-1.1-2.5-1.6-4-1.6C54.6,6.6,54.2,6.7,54,6.7z M54.9,9.7	c1.3,0.3,2.1,1.4,2.4,2.8c0.1,0.4,0.1,1.4,0,1.8c-0.3,1.3-1.1,2.2-2.3,2.6c-0.4,0.1-1.3,0.2-1.7,0.1c-1.3-0.3-2.3-1.3-2.6-2.7	c-0.1-0.4-0.1-1.3,0-1.8c0.2-0.8,0.4-1.4,1-1.9c0.5-0.5,1-0.8,1.7-0.9C53.7,9.6,54.6,9.6,54.9,9.7z M67.8,6.7	c-1.5,0.2-2.7,0.8-3.6,1.8c-1,1-1.6,2.3-1.8,3.9c-0.1,0.6,0,1.8,0.1,2.4c0.4,2,1.5,3.6,3.3,4.5c1.9,0.9,4.5,1,6.3,0.1	c0.8-0.4,1.5-1,2-1.6c0.3-0.4,0.8-1.4,0.8-1.6c0-0.1-0.1-0.1-1.4-0.7c-1.7-0.7-1.5-0.6-1.5-0.5c0,0.1-0.2,0.6-0.4,0.9	c-0.3,0.5-0.8,0.9-1.3,1c-0.9,0.3-2,0.2-2.9-0.2c-0.3-0.2-0.5-0.3-0.8-0.6c-0.3-0.3-0.4-0.4-0.6-0.8c-0.2-0.4-0.3-0.6-0.3-1.1l0-0.3	l4.3,0l4.4,0l0.1-0.3c0-0.2,0.1-0.6,0.1-1.2c0-0.8,0-1-0.1-1.3c-0.5-2.3-2-3.7-4.3-4.2c-0.3-0.1-0.6-0.1-1.3-0.1	C68.4,6.7,67.9,6.7,67.8,6.7z M69.6,9.5c0.6,0.2,1.2,0.6,1.5,1.1c0.1,0.2,0.2,0.6,0.2,0.8v0.2h-2.7c-1.5,0-2.7,0-2.7,0	c0,0,0-0.1,0.1-0.2C66.4,9.9,67.9,9.1,69.6,9.5z M82.4,6.7c-0.9,0.2-1.6,0.7-2,1.4l-0.2,0.3V7.7V6.9h-1.7h-1.7v6.4v6.4h1.7h1.7	l0-4.4c0-4.3,0-4.4,0.1-4.6c0.1-0.4,0.3-0.7,0.6-0.9c0.3-0.2,0.6-0.3,0.9-0.3c0.8-0.1,1.5,0.4,1.7,1.1c0.1,0.2,0.1,0.3,0,0.7	c0,0.3,0,0.6-0.1,0.6l0,0.1h1.6h1.6l0-0.2c0.2-0.8,0.2-1.9,0-2.5c-0.4-1.4-1.4-2.3-2.8-2.6C83.6,6.6,82.8,6.6,82.4,6.7z" class="st0"/></svg>