<svg xmlns="http://www.w3.org/2000/svg" xmlns:xlink="http://www.w3.org/1999/xlink" id="Layer_1" x="0" y="0" version="1.1" viewBox="0 0 109 20" xml:space="preserve" style="enable-background:new 0 0 109 20"><style type="text/css">.st0{fill:#8a939b}</style><path d="M76.7,5.3c-0.4,0.1-0.8,0.3-1.2,0.6c-0.4,0.3-0.7,0.6-1,0.9c-0.3,0.4-0.5,0.7-0.7,1.2h-0.1V5.4h-3.5v13.5h3.7	v-6.1c0-0.6,0.1-1.2,0.2-1.7c0.1-0.5,0.3-1,0.6-1.4c0.3-0.4,0.7-0.7,1.1-0.9c0.5-0.2,1-0.3,1.7-0.3c0.2,0,0.5,0,0.7,0	c0.2,0,0.5,0.1,0.6,0.1V5.2C78.6,5.1,78.3,5,78.1,5C77.6,5,77.1,5.1,76.7,5.3z" class="st0"/><path d="M91.2,7.5c-0.5-0.7-1.3-1.3-2.1-1.8c-0.9-0.4-1.9-0.7-3-0.7c-1,0-2,0.2-2.8,0.5c-0.8,0.4-1.6,0.9-2.2,1.5	c-0.6,0.6-1.1,1.4-1.4,2.3c-0.3,0.9-0.5,1.8-0.5,2.8c0,1,0.2,2,0.5,2.9c0.3,0.9,0.8,1.6,1.4,2.3c0.6,0.6,1.3,1.1,2.2,1.5	c0.9,0.3,1.8,0.5,2.9,0.5c1.5,0,2.8-0.3,3.9-1c1.1-0.7,1.9-1.9,2.4-3.5h-3.3c-0.1,0.4-0.5,0.8-1,1.2c-0.5,0.4-1.2,0.6-1.9,0.6	c-1,0-1.8-0.3-2.4-0.8c-0.6-0.5-0.9-1.4-0.9-2.6h9.8c0.1-1,0-2-0.3-3C92.2,9.1,91.8,8.3,91.2,7.5z M82.9,10.7c0-0.3,0.1-0.6,0.2-0.9	c0.1-0.3,0.3-0.6,0.5-0.9c0.2-0.3,0.6-0.5,0.9-0.7c0.4-0.2,0.9-0.3,1.5-0.3c0.9,0,1.6,0.2,2,0.7c0.4,0.5,0.8,1.2,0.9,2.1H82.9	L82.9,10.7z" class="st0"/><path d="M104.4,0.3v6.8h-0.1c-0.4-0.7-1-1.2-1.7-1.5c-0.7-0.3-1.5-0.5-2.3-0.5c-1,0-1.9,0.2-2.6,0.6	c-0.8,0.4-1.4,0.9-1.9,1.6c-0.5,0.6-0.9,1.4-1.1,2.2c-0.3,0.8-0.4,1.7-0.4,2.6c0,0.9,0.1,1.8,0.4,2.7c0.3,0.9,0.6,1.6,1.1,2.3	c0.5,0.7,1.1,1.2,1.9,1.6c0.8,0.4,1.7,0.6,2.7,0.6c0.9,0,1.7-0.2,2.4-0.5c0.7-0.3,1.3-0.9,1.7-1.6h0.1v1.7h3.5V0.3H104.4z M104.3,13.8c-0.1,0.5-0.3,1-0.5,1.4c-0.2,0.4-0.6,0.7-1,1c-0.4,0.2-0.9,0.4-1.5,0.4c-0.6,0-1.1-0.1-1.5-0.4c-0.4-0.3-0.7-0.6-1-1	c-0.3-0.4-0.5-0.9-0.6-1.4c-0.1-0.5-0.2-1-0.2-1.6c0-0.6,0.1-1.1,0.2-1.6c0.1-0.5,0.3-1,0.6-1.4c0.3-0.4,0.6-0.7,1-1	c0.4-0.2,0.9-0.4,1.5-0.4c0.6,0,1.1,0.1,1.5,0.4c0.4,0.2,0.7,0.6,1,1c0.3,0.4,0.4,0.8,0.5,1.4c0.1,0.5,0.2,1.1,0.2,1.6	C104.5,12.7,104.4,13.2,104.3,13.8z" class="st0"/><path d="M47.5,18.9c1.8,0,3.2-1.4,3.2-3.2s-1.4-3.2-3.2-3.2c-1.8,0-3.2,1.4-3.2,3.2S45.8,18.9,47.5,18.9z" class="st0"/><path d="M68.5,18.9h-4.9l-5.1-8.7l-3,3.1v5.6h-3.8V4.4c0-1.5,0.3-2.7,0.9-3.3C53.3,0.4,54.5,0,56.1,0c1,0,2,0.2,3,0.5	l-0.5,2.5c-0.6-0.1-1.1-0.2-1.6-0.2c-0.6,0-1,0.2-1.2,0.5c-0.2,0.2-0.2,0.7-0.2,1.3v4.1l7.6-8.3h5.1l-7,7.3L68.5,18.9z" class="st0"/><path d="M4.1,0.3L12,12.9h0.1V0.3h3.9v18.9h-4.1L3.9,6.5H3.9v12.6H0V0.3H4.1z" class="st0"/><path d="M30.6,0.3v3.5h-9.1v4.4h7.9v3.2h-7.9v7.8h-4.1V0.3H30.6z" class="st0"/><path d="M31.7,3.8V0.3h15.5v3.5h-5.7v15.4h-4.1V3.8H31.7z" class="st0"/></svg>