<svg xmlns="http://www.w3.org/2000/svg" xmlns:xlink="http://www.w3.org/1999/xlink" id="Layer_1" x="0" y="0" version="1.1" viewBox="0 0 182 15" xml:space="preserve" style="enable-background:new 0 0 182 15"><style type="text/css">.st0{fill:#8a939b}</style><path d="M10.4,4.8c0,0.8-0.1,1.5-0.4,2.1c-0.3,0.6-0.7,1-1.2,1.4C8.2,8.6,7.6,8.8,7,9c-0.7,0.2-1.3,0.2-2,0.2H3.3v5.4H0	V0.4h5c0.7,0,1.4,0.1,2.1,0.2C7.8,0.8,8.3,1,8.8,1.4c0.5,0.3,0.9,0.8,1.1,1.3C10.2,3.3,10.4,3.9,10.4,4.8z M7.1,4.8	C7.1,4.5,7,4.2,6.9,4C6.7,3.7,6.6,3.6,6.3,3.5C6.1,3.3,5.9,3.3,5.6,3.2C5.3,3.2,5,3.2,4.7,3.2H3.3v3.4h1.4c0.3,0,0.6,0,0.9-0.1	c0.3-0.1,0.5-0.1,0.8-0.3C6.6,6,6.7,5.8,6.9,5.6C7,5.4,7.1,5.1,7.1,4.8z" class="st0"/><path d="M22.4,14.6l-1.1-2.8H16l-1,2.8h-3.6l5.7-14.2h3.2l5.7,14.2H22.4z M18.7,4.2L17,9.1h3.4L18.7,4.2z" class="st0"/><path d="M36.3,4.1c-0.3-0.4-0.7-0.7-1.1-0.9c-0.5-0.2-0.9-0.3-1.3-0.3c-0.2,0-0.4,0-0.7,0.1C33,3,32.8,3,32.6,3.2	c-0.2,0.1-0.3,0.3-0.5,0.4C32,3.8,32,4,32,4.3c0,0.2,0,0.4,0.1,0.6c0.1,0.2,0.2,0.3,0.4,0.4c0.2,0.1,0.4,0.2,0.7,0.3	c0.3,0.1,0.5,0.2,0.9,0.3c0.5,0.2,0.9,0.3,1.4,0.5c0.5,0.2,1,0.4,1.4,0.8c0.4,0.3,0.8,0.7,1,1.2c0.3,0.5,0.4,1.1,0.4,1.8	c0,0.8-0.1,1.5-0.4,2.1c-0.3,0.6-0.7,1.1-1.2,1.5c-0.5,0.4-1,0.7-1.7,0.9c-0.6,0.2-1.3,0.3-1.9,0.3c-1,0-1.9-0.2-2.8-0.5	c-0.9-0.4-1.7-0.9-2.3-1.5l2.2-2.3c0.3,0.4,0.8,0.8,1.3,1.1c0.6,0.3,1.1,0.4,1.6,0.4c0.2,0,0.5,0,0.7-0.1c0.2-0.1,0.4-0.1,0.6-0.3	c0.2-0.1,0.3-0.3,0.4-0.5c0.1-0.2,0.2-0.4,0.2-0.7c0-0.3-0.1-0.5-0.2-0.7c-0.1-0.2-0.3-0.4-0.6-0.5C34,9.2,33.7,9.1,33.4,9	c-0.3-0.1-0.7-0.3-1.2-0.4c-0.4-0.1-0.9-0.3-1.3-0.5c-0.4-0.2-0.8-0.5-1.1-0.8C29.4,7,29.2,6.6,29,6.1c-0.2-0.5-0.3-1-0.3-1.6	c0-0.8,0.2-1.5,0.5-2c0.3-0.6,0.7-1,1.2-1.4c0.5-0.4,1.1-0.6,1.7-0.8C32.7,0.1,33.3,0,34,0c0.8,0,1.6,0.1,2.4,0.4	c0.8,0.3,1.5,0.7,2.1,1.3L36.3,4.1z" class="st0"/><path d="M54.5,12.6c-0.6,0.7-1.4,1.3-2.2,1.7c-0.9,0.4-1.9,0.6-3.1,0.6c-1.1,0-2-0.2-2.9-0.5c-0.9-0.4-1.7-0.9-2.3-1.5	c-0.7-0.7-1.2-1.5-1.5-2.4c-0.4-0.9-0.6-1.9-0.6-3.1c0-1.1,0.2-2.2,0.6-3.1c0.4-0.9,0.9-1.7,1.6-2.4c0.7-0.7,1.5-1.2,2.4-1.5	C47.2,0.2,48.2,0,49.2,0c1,0,1.9,0.2,2.8,0.5c0.9,0.3,1.7,0.9,2.3,1.5l-2.2,2.3c-0.3-0.4-0.7-0.8-1.2-1c-0.5-0.2-1-0.3-1.5-0.3	c-0.6,0-1.1,0.1-1.6,0.3c-0.5,0.2-0.9,0.5-1.2,0.9c-0.3,0.4-0.6,0.9-0.8,1.4c-0.2,0.5-0.3,1.1-0.3,1.7c0,0.6,0.1,1.2,0.3,1.8	c0.2,0.5,0.5,1,0.8,1.4c0.3,0.4,0.8,0.7,1.2,0.9c0.5,0.2,1,0.3,1.6,0.3c0.7,0,1.2-0.1,1.7-0.4c0.5-0.3,0.9-0.6,1.2-1L54.5,12.6z" class="st0"/><path d="M66.8,14.6l-1.1-2.8h-5.3l-1,2.8h-3.6l5.7-14.2h3.2l5.7,14.2H66.8z M63.2,4.2l-1.7,4.9h3.4L63.2,4.2z" class="st0"/><path d="M73.6,14.6V0.4h3.3v11.2h5.3v3H73.6z" class="st0"/><path d="M104,12.6c-0.6,0.7-1.3,1.3-2.2,1.7c-0.9,0.4-1.9,0.6-3.1,0.6c-1.1,0-2-0.2-2.9-0.5c-0.9-0.4-1.7-0.9-2.3-1.5	c-0.7-0.7-1.2-1.5-1.5-2.4c-0.4-0.9-0.6-1.9-0.6-3.1c0-1.1,0.2-2.2,0.6-3.1c0.4-0.9,0.9-1.7,1.6-2.4c0.7-0.7,1.5-1.2,2.4-1.5	C96.7,0.2,97.7,0,98.7,0c1,0,1.9,0.2,2.8,0.5c0.9,0.3,1.7,0.9,2.3,1.5l-2.2,2.3c-0.3-0.4-0.7-0.8-1.2-1c-0.5-0.2-1-0.3-1.5-0.3	c-0.6,0-1.1,0.1-1.6,0.3C96.8,3.7,96.3,4,96,4.4c-0.3,0.4-0.6,0.9-0.8,1.4c-0.2,0.5-0.3,1.1-0.3,1.7c0,0.6,0.1,1.2,0.3,1.8	c0.2,0.5,0.5,1,0.8,1.4c0.3,0.4,0.8,0.7,1.2,0.9c0.5,0.2,1,0.3,1.6,0.3c0.7,0,1.2-0.1,1.7-0.4c0.5-0.3,0.9-0.6,1.2-1L104,12.6z" class="st0"/><path d="M116.3,14.6l-1.1-2.8H110l-1,2.8h-3.6l5.7-14.2h3.2l5.7,14.2H116.3z M112.7,4.2l-1.7,4.9h3.4L112.7,4.2z" class="st0"/><path d="M133.4,4.8c0,0.8-0.1,1.5-0.4,2.1c-0.3,0.6-0.7,1-1.2,1.4c-0.5,0.3-1.1,0.6-1.7,0.8c-0.7,0.2-1.3,0.2-2,0.2	h-1.6v5.4h-3.3V0.4h5c0.7,0,1.4,0.1,2.1,0.2c0.7,0.1,1.2,0.4,1.7,0.7c0.5,0.3,0.9,0.8,1.1,1.3C133.3,3.3,133.4,3.9,133.4,4.8z M130.1,4.8c0-0.3-0.1-0.6-0.2-0.8c-0.1-0.2-0.3-0.4-0.5-0.5c-0.2-0.1-0.5-0.2-0.8-0.2c-0.3,0-0.6-0.1-0.8-0.1h-1.4v3.4h1.4	c0.3,0,0.6,0,0.9-0.1s0.5-0.1,0.8-0.3c0.2-0.1,0.4-0.3,0.5-0.5C130.1,5.4,130.1,5.1,130.1,4.8z" class="st0"/><path d="M137.3,14.6V0.4h3.3v14.2H137.3z" class="st0"/><path d="M151.3,3.3v11.3H148V3.3h-3.9V0.4h11v2.9H151.3z" class="st0"/><path d="M166.7,14.6l-1.1-2.8h-5.3l-1,2.8h-3.6l5.7-14.2h3.2l5.7,14.2H166.7z M163,4.2l-1.7,4.9h3.4L163,4.2z" class="st0"/><path d="M173.4,14.6V0.4h3.3v11.2h5.3v3H173.4z" class="st0"/></svg>