<svg xmlns="http://www.w3.org/2000/svg" xmlns:xlink="http://www.w3.org/1999/xlink" id="Layer_1" x="0" y="0" version="1.1" viewBox="0 0 157 30" xml:space="preserve" style="enable-background:new 0 0 157 30"><style type="text/css">.st0{fill:#8a939b}</style><path d="M26.2,15.4c0-2.3-0.7-4.5-1.9-6.4l4.6-4.6l-3.5-3.5l-4.6,4.6C16.9,3,11.9,3,8,5.5L3.5,0.9L0,4.4L4.6,9	c-2.5,3.9-2.5,8.9,0,12.8L0,26.4l3.5,3.5l4.6-4.6c3.9,2.5,8.9,2.5,12.8,0l4.6,4.6l3.5-3.5l-4.6-4.6C25.5,19.9,26.2,17.7,26.2,15.4z M7.6,15.4c0-2.8,1.7-5.3,4.3-6.4c2.6-1,5.6-0.4,7.5,1.6c1.9,2,2.5,5,1.3,7.5l-4.5-4.5l-3.5,3.5l4.5,4.5c-2.1,1-4.6,0.8-6.5-0.5	C8.8,19.9,7.6,17.7,7.6,15.4z" class="st0"/><path d="M51.1,15.5c0,2.8-1.4,5.4-4,6.6l1.4,1.8l-2.8,1.4l-1.9-2.5h-0.1c-4.6,0-7.3-3.4-7.3-7.3c0-3.9,2.7-7.3,7.3-7.3	C48.3,8.3,51.1,11.6,51.1,15.5z M43.7,19.9c2.6,0,4-2,4-4.4c0-2.4-1.4-4.4-4-4.4c-2.6,0-4,2-4,4.4C39.7,17.9,41.1,19.9,43.7,19.9z M56.2,22.6c-2.3,0-3.5-1.4-3.5-3.9v-5.9h3v5.2c0,1.3,0.4,2,1.6,2c1.3,0,1.8-0.8,1.8-2.1v-5.1h3v9.4h-3V21	C58.6,22,57.6,22.6,56.2,22.6z M68.4,22.6c-2.8,0-4.5-2.1-4.5-5c0-2.8,1.7-5,4.5-5c1.4,0,2.4,0.7,3,1.6V13h3v9.4h-3v-1.3	C70.9,22,69.7,22.6,68.4,22.6z M69.3,20.2c1.5,0,2.3-1.1,2.3-2.5c0-1.4-0.8-2.5-2.3-2.5c-1.4,0-2.3,1-2.3,2.5	C67,19.1,67.9,20.2,69.3,20.2z M76.9,12.9h3v1.4c0.5-1.1,1.6-1.6,3.1-1.6c2.3,0,3.5,1.3,3.5,3.9v5.9h-3v-4.9c0-1.6-0.4-2.3-1.7-2.3	c-1.2,0-1.8,0.8-1.8,2.2v4.9h-3L76.9,12.9L76.9,12.9z M93.7,20.1c0.4,0,0.8,0,1-0.1v2.4c-0.4,0.1-1.1,0.2-2,0.2	c-1.4,0-3.4-0.3-3.4-3.5v-3.8h-1.5V13h1.5v-2.8h3V13h2.1v2.4h-2.1v3.1C92.4,19.8,93,20.1,93.7,20.1z M100.3,22.7	c-2.8,0-4.5-1.4-4.5-3.1h3c0,0.7,0.6,1.1,1.6,1.1c0.7,0,1.1-0.3,1.1-0.9c0-0.4-0.2-0.7-0.7-0.8l-2.3-0.6c-1.6-0.4-2.4-1.4-2.4-2.7	c0-1.8,1.6-3,4-3c2.8,0,4.2,1.1,4.2,2.9h-3c0-0.7-0.5-1-1.3-1c-0.7,0-1.1,0.3-1.1,0.8c0,0.4,0.3,0.7,0.8,0.8l2.2,0.6	c1.5,0.4,2.4,1.3,2.4,2.6C104.4,21.4,102.9,22.7,100.3,22.7z M111.2,20.1c0.4,0,0.8,0,1-0.1v2.4c-0.4,0.1-1.1,0.2-2,0.2	c-1.4,0-3.4-0.3-3.4-3.5v-3.8h-1.5V13h1.5v-2.8h3V13h2.1v2.4h-2.1v3.1C109.9,19.8,110.5,20.1,111.2,20.1z M117.8,22.6	c-2.8,0-4.5-2.1-4.5-5c0-2.8,1.7-5,4.5-5c1.4,0,2.4,0.7,3,1.6V13h3v9.4h-3v-1.3C120.3,22,119.1,22.6,117.8,22.6z M118.7,20.2	c1.5,0,2.3-1.1,2.3-2.5c0-1.4-0.8-2.5-2.3-2.5c-1.4,0-2.3,1-2.3,2.5C116.4,19.1,117.3,20.2,118.7,20.2z M126.3,12.9h3v1.4	c0.4-0.9,1.4-1.6,2.7-1.6c1.7,0,2.6,0.8,3,1.7c0.5-1,1.6-1.7,3-1.7c2.7,0,3.4,1.9,3.4,3.9v5.9h-3v-5.3c0-1.3-0.5-1.9-1.4-1.9	c-0.9,0-1.6,0.5-1.6,2.3v4.9h-3V17c0-1.3-0.5-1.8-1.4-1.8c-1,0-1.6,0.5-1.6,2.3v4.9h-3V12.9L126.3,12.9z M143.7,12.9h3v1.4	c0.5-0.9,1.7-1.6,3.1-1.6c2.6,0,4.3,2,4.3,5s-1.8,5-4.4,5c-1.4,0-2.5-0.7-3-1.6v5.3h-3L143.7,12.9z M148.8,20.2c1.3,0,2.2-1,2.2-2.5	c0-1.5-0.9-2.5-2.2-2.5c-1.4,0-2.3,1-2.3,2.5C146.5,19.1,147.5,20.2,148.8,20.2z M154.9,14.9c-0.2,0-0.5-0.1-0.7-0.2	c-0.2-0.1-0.3-0.3-0.4-0.5c-0.1-0.2-0.2-0.4-0.2-0.7c0-0.2,0.1-0.4,0.2-0.7c0.1-0.2,0.3-0.3,0.4-0.5c0.2-0.1,0.4-0.2,0.7-0.2	c0.3,0,0.5,0.1,0.7,0.2c0.2,0.1,0.3,0.3,0.4,0.5c0.1,0.2,0.2,0.4,0.2,0.7c0,0.2-0.1,0.5-0.2,0.7c-0.1,0.2-0.3,0.4-0.4,0.5	C155.4,14.9,155.2,14.9,154.9,14.9z M154.9,14.7c0.2,0,0.4-0.1,0.5-0.2c0.2-0.1,0.3-0.2,0.4-0.4c0.1-0.2,0.1-0.3,0.1-0.5	c0-0.2-0.1-0.4-0.1-0.5c-0.2-0.3-0.5-0.5-0.9-0.5c-0.2,0-0.4,0.1-0.5,0.2c-0.2,0.1-0.3,0.2-0.4,0.4c-0.1,0.2-0.1,0.3-0.1,0.5	c0,0.2,0.1,0.4,0.1,0.5c0.1,0.2,0.2,0.3,0.4,0.4C154.5,14.6,154.7,14.7,154.9,14.7z M154.5,12.9h0.5c0.1,0,0.2,0.1,0.3,0.1	c0.1,0.1,0.1,0.2,0.1,0.3c0,0.1,0,0.2-0.1,0.3c-0.1,0.1-0.1,0.1-0.2,0.2l0.3,0.5h-0.2l-0.3-0.4h-0.3v0.4h-0.2V12.9L154.5,12.9z M155,13.7c0.1,0,0.2,0,0.2-0.1c0.1-0.1,0.1-0.1,0.1-0.2c0-0.1,0-0.2-0.1-0.2c-0.1-0.1-0.1-0.1-0.2-0.1h-0.3v0.5H155z" class="st0"/></svg>