<svg xmlns="http://www.w3.org/2000/svg" xmlns:xlink="http://www.w3.org/1999/xlink" id="Layer_1" x="0" y="0" version="1.1" viewBox="0 0 136 36" xml:space="preserve" style="enable-background:new 0 0 136 36"><style type="text/css">.st0{fill:#8a939b}.st1{fill:none;stroke:#dfe5ec}.st2{fill-rule:evenodd;clip-rule:evenodd;fill:#8a939b}</style><path d="M45.7,14.4H42v-2.2h10v2.2h-3.7v9.3h-2.6V14.4z M54.5,16c0.3-0.4,0.7-0.7,1.2-1c0.5-0.2,1.1-0.3,1.8-0.3v2.4	c-0.3,0-0.5,0-0.6,0c-0.7,0-1.3,0.2-1.7,0.6s-0.6,1-0.6,1.8v4.2H52v-8.8h2.4L54.5,16L54.5,16z M67,14.9v8.8h-2.4v-1	c-0.3,0.4-0.7,0.7-1.2,0.9c-0.5,0.2-1,0.3-1.5,0.3c-1.2,0-2.1-0.3-2.7-1c-0.7-0.7-1-1.7-1-3v-5h2.6v4.6c0,1.4,0.6,2.1,1.8,2.1	c0.6,0,1.1-0.2,1.5-0.6c0.4-0.4,0.6-1,0.6-1.8v-4.3C64.7,14.9,67,14.9,67,14.9z M71.4,23.8c-0.7,0-1.4-0.1-2.1-0.3	c-0.7-0.2-1.3-0.4-1.7-0.7l0.9-1.8c0.4,0.3,0.9,0.5,1.4,0.6c0.6,0.2,1.1,0.2,1.6,0.2c1.1,0,1.6-0.3,1.6-0.8c0-0.3-0.1-0.4-0.4-0.5	s-0.7-0.2-1.4-0.3c-0.7-0.1-1.3-0.2-1.8-0.4c-0.5-0.1-0.9-0.4-1.2-0.8c-0.3-0.4-0.5-0.9-0.5-1.5s0.2-1,0.5-1.5	c0.3-0.4,0.8-0.8,1.4-1s1.4-0.4,2.2-0.4c0.6,0,1.2,0.1,1.8,0.2c0.6,0.1,1.1,0.3,1.5,0.6l-0.9,1.8c-0.8-0.4-1.6-0.7-2.5-0.7	c-0.5,0-1,0.1-1.2,0.2c-0.3,0.2-0.4,0.3-0.4,0.6c0,0.3,0.1,0.5,0.4,0.6s0.8,0.2,1.4,0.3c0.7,0.1,1.3,0.3,1.8,0.4s0.9,0.4,1.2,0.7	c0.3,0.4,0.5,0.9,0.5,1.5c0,0.5-0.2,1-0.5,1.5c-0.3,0.4-0.8,0.8-1.4,1C73,23.7,72.2,23.8,71.4,23.8z M81.8,23.2	c-0.3,0.2-0.6,0.3-0.9,0.4c-0.4,0.1-0.7,0.1-1.1,0.1c-1,0-1.9-0.3-2.4-0.8c-0.6-0.5-0.9-1.3-0.9-2.4V17h-1.4v-2h1.4v-2.1H79V15h2.2	v2H79v3.6c0,0.4,0.1,0.7,0.3,0.9c0.2,0.2,0.5,0.3,0.8,0.3c0.4,0,0.7-0.1,1-0.3L81.8,23.2z M103.4,12.2l-3.7,11.4h-2.8l-2.5-7.8	l-2.6,7.8H89l-3.8-11.4h2.7l2.6,8l2.7-8h2.5l2.6,8.1l2.7-8.1C101,12.2,103.4,12.2,103.4,12.2z M106.6,14.7c1.4,0,2.4,0.3,3.1,1	c0.7,0.6,1.1,1.6,1.1,2.9v5h-2.4v-1.1c-0.5,0.8-1.4,1.2-2.7,1.2c-0.7,0-1.3-0.1-1.8-0.3c-0.5-0.2-0.9-0.5-1.1-0.9	c-0.3-0.4-0.4-0.9-0.4-1.4c0-0.8,0.3-1.5,0.9-1.9c0.6-0.5,1.6-0.7,2.9-0.7h2c0-0.6-0.2-1-0.5-1.3s-0.8-0.5-1.5-0.5	c-0.5,0-0.9,0.1-1.4,0.2c-0.4,0.1-0.8,0.3-1.1,0.6l-0.9-1.8c0.5-0.3,1.1-0.6,1.7-0.8C105.2,14.8,105.9,14.7,106.6,14.7z M106.4,22.1	c0.4,0,0.8-0.1,1.2-0.3c0.3-0.2,0.6-0.5,0.7-0.9V20h-1.7c-1,0-1.6,0.3-1.6,1c0,0.3,0.1,0.6,0.4,0.8C105.6,22,105.9,22.1,106.4,22.1z M112.1,11.5h2.6v12.1h-2.6V11.5z M116.1,11.5h2.6v12.1h-2.6V11.5z M128.6,19.3c0,0,0,0.3,0,0.7h-6.7c0.1,0.5,0.4,1,0.8,1.3	s1,0.5,1.7,0.5c0.5,0,0.9-0.1,1.2-0.2c0.4-0.1,0.7-0.4,1-0.7l1.4,1.5c-0.8,0.9-2,1.4-3.6,1.4c-1,0-1.9-0.2-2.6-0.6	c-0.8-0.4-1.4-0.9-1.8-1.6s-0.6-1.5-0.6-2.3c0-0.9,0.2-1.6,0.6-2.3c0.4-0.7,1-1.2,1.7-1.6c0.7-0.4,1.5-0.6,2.4-0.6s1.6,0.2,2.3,0.6	c0.7,0.4,1.2,0.9,1.6,1.6C128.4,17.6,128.6,18.4,128.6,19.3z M124.1,16.7c-0.6,0-1.1,0.2-1.5,0.5s-0.6,0.8-0.7,1.3h4.3	c-0.1-0.6-0.3-1-0.7-1.3C125.1,16.8,124.6,16.7,124.1,16.7z M135,23.2c-0.3,0.2-0.6,0.3-0.9,0.4c-0.4,0.1-0.7,0.1-1.1,0.1	c-1,0-1.9-0.3-2.4-0.8c-0.6-0.5-0.9-1.3-0.9-2.4V17h-1.4v-2h1.4v-2.1h2.6V15h2.2v2h-2.2v3.6c0,0.4,0.1,0.7,0.3,0.9	c0.2,0.2,0.5,0.3,0.8,0.3c0.4,0,0.7-0.1,1-0.3L135,23.2z" class="st0"/><path d="M23.4,1H12.3C6.1,1,1,6.1,1,12.3v11.1c0,6.3,5.1,11.3,11.3,11.3h11.1c6.3,0,11.3-5.1,11.3-11.3V12.3	C34.7,6.1,29.7,1,23.4,1z" class="st1"/><path d="M17.3,7.9c0.4-0.3,1-0.3,1.4,0c2.7,2.3,5.8,2.2,7,2.2c0.1,0,0.1,0,0.2,0c0.3,0,0.6,0.1,0.8,0.3s0.3,0.5,0.3,0.8	c-0.1,3.8-0.2,6.5-0.5,8.4c-0.3,2-0.8,3.3-1.5,4.4c-0.7,1-1.7,1.6-2.7,2.2c-0.2,0.1-0.4,0.2-0.5,0.3c-0.9,0.5-1.9,1-3,1.8	c-0.4,0.3-0.9,0.3-1.2,0c-1.2-0.8-2.1-1.4-3-1.8c-0.2-0.1-0.4-0.2-0.5-0.3c-1-0.6-2-1.1-2.7-2.2c-0.7-1-1.2-2.4-1.5-4.4	s-0.4-4.7-0.5-8.4c0-0.3,0.1-0.6,0.3-0.8s0.5-0.3,0.8-0.3c0,0,0.1,0,0.2,0C11.5,10.2,14.6,10.2,17.3,7.9z M18,10.1	c-2.5,1.8-5.2,2.1-6.7,2.2c0.1,3.2,0.2,5.4,0.5,7.1c0.3,1.8,0.7,2.8,1.1,3.4c0.4,0.6,1,1,2,1.6c0.2,0.1,0.3,0.2,0.5,0.3	c0.7,0.4,1.6,0.9,2.6,1.6c1-0.7,1.9-1.2,2.7-1.6c0.2-0.1,0.3-0.2,0.5-0.3c1-0.5,1.6-0.9,2-1.6c0.5-0.6,0.8-1.6,1.1-3.4	c0.2-1.6,0.4-3.9,0.5-7.1C23.2,12.2,20.5,11.9,18,10.1z" class="st2"/></svg>