<svg width="65" height="64" viewBox="0 0 65 64" fill="none" xmlns="http://www.w3.org/2000/svg">
<path d="M55.5 45.1769C55.5 46.2298 54.948 47.2057 54.0456 47.7481L36.5456 58.2676C34.5461 59.4695 32 58.0294 32 55.6964V34.9492C32 33.8963 32.552 32.9204 33.4544 32.378L50.9544 21.8585C52.9539 20.6566 55.5 22.0968 55.5 24.4298V45.1769Z" fill="#1868B7"/>
<path d="M5.5 45.1769C5.5 46.2298 6.05199 47.2057 6.95441 47.7481L24.4544 58.2676C26.4539 59.4695 29 58.0294 29 55.6964V34.9492C29 33.8963 28.448 32.9204 27.5456 32.378L10.0456 21.8585C8.04605 20.6566 5.5 22.0968 5.5 24.4298V45.1769Z" fill="#1868B7"/>
<path d="M11.2774 18.6973C9.33822 17.5317 9.33822 14.7206 11.2774 13.5549L28.9544 2.92907C29.9055 2.35736 31.0945 2.35736 32.0456 2.92907L49.7226 13.5549C51.6618 14.7206 51.6618 17.5317 49.7226 18.6973L32.0456 29.3232C31.0945 29.8949 29.9055 29.8949 28.9544 29.3232L11.2774 18.6973Z" fill="#2BCDE4"/>
</svg>
