<svg width="65" height="64" viewBox="0 0 65 64" fill="none" xmlns="http://www.w3.org/2000/svg">
<path fill-rule="evenodd" clip-rule="evenodd" d="M14.0516 27.1106C14.0516 24.8918 15.8503 23.0931 18.0691 23.0931H57.7407C59.9595 23.0931 61.7582 24.8918 61.7582 27.1106V32.788C61.4223 32.688 61.0665 32.6344 60.6982 32.6344C58.6489 32.6344 56.9877 34.2956 56.9877 36.3449C56.9877 38.3941 58.6489 40.0554 60.6982 40.0554C61.0665 40.0554 61.4223 40.0017 61.7582 39.9018V45.0492C61.7582 47.268 59.9595 49.0667 57.7407 49.0667H18.0691C15.8503 49.0667 14.0516 47.268 14.0516 45.0492V39.6983C14.5336 39.9273 15.0728 40.0554 15.6419 40.0554C17.6912 40.0554 19.3524 38.3941 19.3524 36.3449C19.3524 34.2956 17.6912 32.6344 15.6419 32.6344C15.0728 32.6344 14.5336 32.7625 14.0516 32.9915V27.1106Z" fill="#1868B7"/>
<path fill-rule="evenodd" clip-rule="evenodd" d="M3.7044 19.0037C3.70194 16.7849 5.49865 14.9842 7.71746 14.9818L47.389 14.9378C49.6078 14.9354 51.4085 16.7321 51.411 18.9509L51.4173 24.6284C51.0812 24.5288 50.7253 24.4755 50.3569 24.4759C48.3077 24.4781 46.6483 26.1412 46.6505 28.1905C46.6528 30.2398 48.3159 31.8992 50.3652 31.8969C50.7335 31.8965 51.0893 31.8424 51.4251 31.7421L51.4308 36.8894C51.4333 39.1082 49.6366 40.9089 47.4178 40.9114L7.74622 40.9553C5.52741 40.9578 3.72672 39.1611 3.72427 36.9423L3.71834 31.5915C4.20058 31.8199 4.7399 31.9474 5.309 31.9468C7.35826 31.9445 9.01768 30.2814 9.01541 28.2322C9.01314 26.1829 7.35004 24.5235 5.30079 24.5258C4.73168 24.5264 4.19264 24.6551 3.71091 24.8846L3.7044 19.0037Z" fill="#2BCDE4"/>
<path d="M16.7918 30.0196C15.5964 30.021 14.6262 29.053 14.6249 27.8576C14.6236 26.6622 15.5916 25.692 16.787 25.6907L29.7738 25.6763C30.9692 25.675 31.9393 26.643 31.9406 27.8384C31.942 29.0338 30.974 30.0039 29.7786 30.0053L16.7918 30.0196Z" fill="#1868B7"/>
<path fill-rule="evenodd" clip-rule="evenodd" d="M39.9156 17.5015C40.8031 17.5015 41.5226 18.2209 41.5226 19.1085L41.5226 19.157C41.5226 20.0446 40.8031 20.764 39.9156 20.764C39.0281 20.764 38.3086 20.0446 38.3086 19.157L38.3086 19.1085C38.3086 18.2209 39.0281 17.5015 39.9156 17.5015ZM39.9156 26.2914C40.8031 26.2914 41.5226 27.0109 41.5226 27.8984L41.5226 27.9955C41.5226 28.8831 40.8031 29.6025 39.9156 29.6025C39.0281 29.6025 38.3086 28.8831 38.3086 27.9955L38.3086 27.8984C38.3086 27.0109 39.0281 26.2914 39.9156 26.2914ZM39.9156 35.1299C40.8031 35.1299 41.5226 35.8494 41.5226 36.7369L41.5226 36.7855C41.5226 37.673 40.8031 38.3925 39.9156 38.3925C39.0281 38.3925 38.3086 37.673 38.3086 36.7855L38.3086 36.7369C38.3086 35.8494 39.0281 35.1299 39.9156 35.1299Z" fill="#1868B7"/>
</svg>
