<svg xmlns="http://www.w3.org/2000/svg" width="161" height="20" fill="none" viewBox="0 0 161 20"><rect width="6.667" height="6.667" fill="#8A939B"/><rect width="6.667" height="6.667" x="6.667" fill="#E5E8EB"/><rect width="6.667" height="6.667" x="13.333" fill="#707A83"/><rect width="6.667" height="6.667" y="6.667" fill="#E5E8EB"/><rect width="6.667" height="6.667" x="6.667" y="6.667" fill="#707A83"/><rect width="6.667" height="6.667" x="13.333" y="6.667" fill="#E5E8EB"/><rect width="6.667" height="6.667" y="13.333" fill="#707A83"/><rect width="6.667" height="6.667" x="6.667" y="13.333" fill="#E5E8EB"/><rect width="6.667" height="6.667" x="13.333" y="13.333" fill="#8A939B"/><path fill="#8A939B" d="M32.3278 4.27101V8.34102H36.9529C37.7792 8.34102 38.4478 8.19074 38.9589 7.89018C39.4785 7.58128 39.7383 7.03861 39.7383 6.26218C39.7383 5.40226 39.3976 4.83455 38.7161 4.55904C38.1284 4.36702 37.3788 4.27101 36.4674 4.27101H32.3278ZM32.3278 11.3966V16.3182H36.9529C37.7792 16.3182 38.4223 16.2097 38.8822 15.9926C39.717 15.5919 40.1343 14.8238 40.1343 13.6884C40.1343 12.7283 39.7297 12.0687 38.9206 11.7097C38.4691 11.5094 37.8345 11.405 37.0168 11.3966H32.3278ZM37.7195 1.0651C40.0279 1.0985 41.6633 1.75387 42.6258 3.03123C43.205 3.81601 43.4946 4.75524 43.4946 5.84892C43.4946 6.976 43.205 7.88184 42.6258 8.56643C42.3021 8.95047 41.8251 9.30112 41.1948 9.61837C42.1573 9.96067 42.8813 10.5033 43.3669 11.2464C43.8609 11.9894 44.1079 12.8911 44.1079 13.9514C44.1079 15.045 43.8268 16.026 43.2646 16.8943C42.9069 17.4703 42.4597 17.9546 41.9231 18.347C41.3183 18.7978 40.6028 19.1067 39.7766 19.2737C38.9589 19.4406 38.0688 19.5241 37.1063 19.5241H28.5714V1.0651H37.7195Z"/><path fill="#8A939B" d="M49.4896 4.24597H45.7971V0.952393H49.4896V4.24597ZM45.7971 5.87397H49.4896V19.5241H45.7971V5.87397Z"/><path fill="#8A939B" d="M50.2206 8.54138V5.9992H52.1626V2.19218H55.7657V5.9992H58.0271V8.54138H55.7657V15.7547C55.7657 16.314 55.8381 16.6647 55.9829 16.8066C56.1277 16.9402 56.5706 17.007 57.3116 17.007C57.4224 17.007 57.5374 17.007 57.6566 17.007C57.7844 16.9986 57.9079 16.9903 58.0271 16.9819V19.6494L56.3023 19.712C54.5817 19.7704 53.4062 19.4782 52.7759 18.8354C52.367 18.4263 52.1626 17.7959 52.1626 16.9444V8.54138H50.2206Z"/><path fill="#8A939B" d="M67.3057 10.7705C67.2376 10.2612 67.063 9.80204 66.7819 9.39295C66.373 8.84194 65.7384 8.56643 64.8781 8.56643C63.6516 8.56643 62.8126 9.16336 62.3611 10.3572C62.1226 10.9917 62.0034 11.835 62.0034 12.8869C62.0034 13.8887 62.1226 14.6944 62.3611 15.3039C62.7955 16.4393 63.6133 17.007 64.8143 17.007C65.666 17.007 66.2708 16.7816 66.6286 16.3307C66.9863 15.8799 67.2035 15.2955 67.2802 14.5775H70.9982C70.913 15.6628 70.5127 16.6897 69.7972 17.6582C68.6558 19.2194 66.965 20 64.7248 20C62.4846 20 60.8364 19.3488 59.7802 18.0464C58.724 16.744 58.1959 15.0534 58.1959 12.9746C58.1959 10.6286 58.7794 8.80437 59.9463 7.50197C61.1133 6.19957 62.7231 5.54837 64.7759 5.54837C66.5221 5.54837 67.9488 5.93241 69.0561 6.70049C70.172 7.46857 70.8321 8.82524 71.0365 10.7705H67.3057Z"/><path fill="#8A939B" d="M78.4242 17.007C79.4889 17.007 80.3066 16.6355 80.8773 15.8924C81.448 15.1494 81.7333 14.0933 81.7333 12.7241C81.7333 11.3549 81.448 10.303 80.8773 9.56828C80.3066 8.82524 79.4889 8.45372 78.4242 8.45372C77.3594 8.45372 76.5375 8.82524 75.9583 9.56828C75.3876 10.303 75.1022 11.3549 75.1022 12.7241C75.1022 14.0933 75.3876 15.1494 75.9583 15.8924C76.5375 16.6355 77.3594 17.007 78.4242 17.007ZM85.5536 12.7241C85.5536 14.7278 84.9658 16.4435 83.7904 17.8711C82.6149 19.2904 80.8304 20 78.4369 20C76.0434 20 74.2589 19.2904 73.0835 17.8711C71.908 16.4435 71.3203 14.7278 71.3203 12.7241C71.3203 10.7538 71.908 9.04648 73.0835 7.60215C74.2589 6.15782 76.0434 5.43566 78.4369 5.43566C80.8304 5.43566 82.6149 6.15782 83.7904 7.60215C84.9658 9.04648 85.5536 10.7538 85.5536 12.7241Z"/><path fill="#8A939B" d="M90.5392 4.24597H86.8467V0.952393H90.5392V4.24597ZM86.8467 5.87397H90.5392V19.5241H86.8467V5.87397Z"/><path fill="#8A939B" d="M100.418 5.54837C101.858 5.54837 103.033 5.91988 103.945 6.66292C104.865 7.39761 105.325 8.6207 105.325 10.3322V19.5241H101.594V11.2213C101.594 10.5033 101.496 9.95232 101.3 9.56828C100.942 8.86698 100.261 8.51634 99.2556 8.51634C98.0205 8.51634 97.173 9.02979 96.713 10.0567C96.4745 10.5993 96.3553 11.2923 96.3553 12.1355V19.5241H92.7267V5.89901H96.2403V7.89018C96.7088 7.18889 97.1517 6.68379 97.5691 6.37489C98.3186 5.82387 99.2684 5.54837 100.418 5.54837Z"/><path fill="#8A939B" d="M107.257 15.7923H111.128V19.5241H107.257V15.7923Z"/><path fill="#8A939B" d="M121.544 10.7705C121.475 10.2612 121.301 9.80204 121.02 9.39295C120.611 8.84194 119.976 8.56643 119.116 8.56643C117.889 8.56643 117.05 9.16336 116.599 10.3572C116.36 10.9917 116.241 11.835 116.241 12.8869C116.241 13.8887 116.36 14.6944 116.599 15.3039C117.033 16.4393 117.851 17.007 119.052 17.007C119.904 17.007 120.509 16.7816 120.866 16.3307C121.224 15.8799 121.441 15.2955 121.518 14.5775H125.236C125.151 15.6628 124.751 16.6897 124.035 17.6582C122.894 19.2194 121.203 20 118.963 20C116.722 20 115.074 19.3488 114.018 18.0464C112.962 16.744 112.434 15.0534 112.434 12.9746C112.434 10.6286 113.017 8.80437 114.184 7.50197C115.351 6.19957 116.961 5.54837 119.014 5.54837C120.76 5.54837 122.187 5.93241 123.294 6.70049C124.41 7.46857 125.07 8.82524 125.274 10.7705H121.544Z"/><path fill="#8A939B" d="M132.662 17.007C133.727 17.007 134.544 16.6355 135.115 15.8924C135.686 15.1494 135.971 14.0933 135.971 12.7241C135.971 11.3549 135.686 10.303 135.115 9.56828C134.544 8.82524 133.727 8.45372 132.662 8.45372C131.597 8.45372 130.775 8.82524 130.196 9.56828C129.625 10.303 129.34 11.3549 129.34 12.7241C129.34 14.0933 129.625 15.1494 130.196 15.8924C130.775 16.6355 131.597 17.007 132.662 17.007ZM139.791 12.7241C139.791 14.7278 139.204 16.4435 138.028 17.8711C136.853 19.2904 135.068 20 132.675 20C130.281 20 128.497 19.2904 127.321 17.8711C126.146 16.4435 125.558 14.7278 125.558 12.7241C125.558 10.7538 126.146 9.04648 127.321 7.60215C128.497 6.15782 130.281 5.43566 132.675 5.43566C135.068 5.43566 136.853 6.15782 138.028 7.60215C139.204 9.04648 139.791 10.7538 139.791 12.7241Z"/><path fill="#8A939B" d="M156.596 5.57341C157.209 5.57341 157.814 5.69029 158.41 5.92406C159.006 6.15782 159.547 6.56691 160.032 7.15132C160.424 7.6272 160.688 8.21161 160.825 8.90455C160.91 9.36373 160.952 10.0358 160.952 10.9208L160.927 19.5241H157.196V10.8331C157.196 10.3155 157.111 9.8897 156.94 9.55575C156.617 8.92125 156.021 8.604 155.152 8.604C154.147 8.604 153.452 9.01309 153.069 9.83126C152.873 10.2654 152.775 10.7872 152.775 11.3966V19.5241H149.108V11.3966C149.108 10.5868 149.023 9.99824 148.853 9.63089C148.546 8.97134 147.946 8.64157 147.051 8.64157C146.012 8.64157 145.314 8.97134 144.956 9.63089C144.76 10.0066 144.662 10.566 144.662 11.309V19.5241H140.97V5.89901H144.509V7.89018C144.96 7.18054 145.386 6.67544 145.786 6.37489C146.493 5.84057 147.409 5.57341 148.533 5.57341C149.598 5.57341 150.458 5.803 151.114 6.26218C151.642 6.68797 152.043 7.23481 152.315 7.90271C152.792 7.10123 153.384 6.51264 154.091 6.13695C154.841 5.76126 155.676 5.57341 156.596 5.57341Z"/></svg>