<svg xmlns="http://www.w3.org/2000/svg" width="77" height="20" fill="none" viewBox="0 0 77 20"><path fill="#8A939B" d="M7.34646 1.86435H9.01302C10.028 1.71421 11.0644 1.84621 12.0099 2.24602C13.1961 2.96263 14.0564 4.1163 14.4074 5.46092C14.6559 6.16556 14.6559 6.16556 15.2553 5.916H15.7231V0.337638H0.0369861V1.32119H0.68022C0.959742 1.31925 1.23615 1.38021 1.48913 1.49961C1.74211 1.619 1.96523 1.7938 2.14212 2.01115C2.74149 2.98002 2.84383 4.06633 2.84383 9.71809C2.84383 15.7222 2.71225 17.1902 2.14212 17.9388C2.00136 18.1313 1.81913 18.2894 1.60903 18.4012C1.39893 18.5131 1.16638 18.5758 0.928742 18.5848C0.0369862 18.7462 0.0369861 18.7315 0.0369861 19.1279C-0.0123287 19.2604 -0.0123287 19.4064 0.0369861 19.5389H9.93402C9.99951 19.4093 10.0336 19.266 10.0336 19.1206C10.0336 18.9752 9.99951 18.8318 9.93402 18.7022C9.69431 18.6352 9.44999 18.5862 9.20307 18.5554C8.93595 18.5235 8.67191 18.4695 8.41365 18.3939C8.04381 18.1228 7.75083 17.7594 7.56367 17.3398C7.37651 16.9201 7.30164 16.4587 7.34646 16.0011C7.20027 15.0322 7.12718 13.2559 7.12718 11.788V10.6282H7.71194C8.44048 10.6059 9.1686 10.6849 9.87554 10.8631C10.2142 11.0733 10.5025 11.3559 10.7198 11.6909C10.9372 12.0259 11.0782 12.4049 11.1328 12.8009L11.2643 13.2559H12.1561V6.75275H11.3374L11.2059 7.38399C11.1505 7.78896 11.0013 8.17524 10.7703 8.51178C10.5392 8.84832 10.2328 9.12574 9.87554 9.32174C9.52959 9.42512 9.16512 9.45019 8.80836 9.39513H7.12718V7.80971C7.12718 6.16556 7.21489 2.7011 7.27337 2.15795L7.34646 1.86435ZM75.7632 13.5055C75.0722 12.3887 73.9944 11.5678 72.737 11.2008C71.7732 10.8982 70.8822 10.3984 70.1203 9.73277C69.9488 9.56625 69.8205 9.36014 69.7466 9.1324C69.6727 8.90467 69.6555 8.66224 69.6963 8.42626C69.6974 7.96339 69.8815 7.51988 70.208 7.19315C70.4293 6.96041 70.7093 6.79241 71.0183 6.70709C71.3273 6.62176 71.6536 6.62233 71.9622 6.70871C72.6013 6.89161 73.1792 7.24469 73.6348 7.73054C74.0903 8.2164 74.4065 8.81694 74.5498 9.46853C74.7837 10.1291 74.8129 10.1291 75.2369 9.95297L75.5 9.85021V6.19492L75.31 6.10684C73.8708 5.59925 72.3441 5.38952 70.822 5.49028C69.5112 5.52363 68.26 6.04713 67.3134 6.95827C66.8841 7.36181 66.5479 7.85469 66.3282 8.40242C66.1085 8.95014 66.0107 9.53946 66.0416 10.1291C66.0498 11.0307 66.4062 11.8938 67.0357 12.5366C67.7313 13.2237 68.5849 13.7279 69.5209 14.0046C71.7868 14.9001 72.4447 15.4726 72.4447 16.5149C72.4544 16.9544 72.315 17.3842 72.0493 17.7337C71.7837 18.0831 71.4076 18.3315 70.9828 18.438C70.4723 18.5506 69.9436 18.5506 69.4332 18.438C68.7648 18.1775 68.1681 17.7605 67.6926 17.2218C67.2171 16.683 66.8766 16.038 66.6994 15.3405L66.5094 14.8707H66.2462C66.1205 14.8801 65.9971 14.9099 65.8808 14.9588H65.7346V19.1279H65.9831C66.9707 19.4578 67.9897 19.6841 69.0238 19.8032H70.4857C71.1197 19.8499 71.757 19.7904 72.3716 19.627C73.1518 19.4825 73.8807 19.1354 74.4859 18.6203C75.0912 18.1053 75.5517 17.4402 75.8216 16.691C75.9961 16.2726 76.0856 15.8235 76.0848 15.3699C76.1424 14.7308 76.0315 14.0878 75.7632 13.5055V13.5055ZM61.9921 5.916C61.1161 5.54667 60.1722 5.36751 59.2224 5.39028C58.2725 5.41305 57.3382 5.63723 56.4808 6.04812C55.6748 6.44401 54.9604 7.00522 54.3838 7.69551C53.8071 8.3858 53.3811 9.18984 53.133 10.0557C52.8168 11.0003 52.6829 11.9968 52.7383 12.9917C52.7278 13.533 52.7719 14.0741 52.8699 14.6065C53.106 15.9157 53.7354 17.1209 54.6735 18.0604C55.6117 18.9998 56.8137 19.6285 58.1181 19.8619C58.9675 19.9694 59.827 19.9694 60.6764 19.8619C61.5578 19.7059 62.4014 19.382 63.1616 18.9077C63.7905 18.5537 64.3227 18.0495 64.7112 17.4397C64.6863 17.344 64.6424 17.2544 64.5821 17.1762C64.5218 17.098 64.4464 17.0328 64.3604 16.9846C64.1935 17.0453 64.036 17.1293 63.8926 17.2342C63.1654 17.7154 62.3068 17.9566 61.4366 17.9242C60.859 17.9634 60.2799 17.8731 59.7414 17.6598C59.2028 17.4465 58.7182 17.1156 58.3228 16.691C58.0168 16.4057 57.7643 16.0676 57.5772 15.6928C57.1229 14.7802 56.8781 13.7769 56.8609 12.7568V12.1843H64.9598V11.8907C64.9776 11.5974 64.9776 11.3032 64.9598 11.0099C64.9569 9.97338 64.6808 8.95608 64.1595 8.06139C63.6383 7.16669 62.8905 6.42649 61.9921 5.916V5.916ZM57.9134 10.9952H56.8901V10.1291C57.2263 7.91247 58.0596 6.59127 59.0829 6.59127C60.1063 6.59127 60.5448 7.89779 60.7349 10.2906V10.9659H59.8577L57.9134 10.9952ZM36.8914 5.43156C36.3862 5.41189 35.8841 5.51778 35.4295 5.73984C34.4414 6.22167 33.6434 7.02306 33.1635 8.01522L32.9735 8.36754V5.43156H32.9004C32.725 5.43156 27.316 6.51788 27.1405 6.59127C26.9651 6.66467 27.0236 6.67935 27.0236 6.94359C27.0236 7.20783 27.0236 7.25187 27.1405 7.26655L27.7107 7.38399C27.8704 7.38792 28.027 7.4283 28.1689 7.50206C28.3107 7.57581 28.434 7.68102 28.5293 7.80971C28.8948 8.29414 28.9679 9.14558 28.9679 12.7715C29.0401 14.4039 28.9716 16.0394 28.7632 17.6599C28.7142 17.9043 28.5908 18.1273 28.4101 18.2982C28.2294 18.4691 28.0004 18.5795 27.7545 18.6141L27.2575 18.7169H27.0674V19.1279C27.0144 19.2648 27.0144 19.4167 27.0674 19.5536H35.2394V19.1279C35.2678 18.9874 35.2678 18.8427 35.2394 18.7022C34.7474 18.6829 34.2581 18.6191 33.7775 18.5114C33.5158 18.3739 33.3017 18.1601 33.1634 17.898C33.0251 17.636 32.9691 17.338 33.0027 17.0434C32.8858 16.1919 32.8273 13.6963 32.8565 11.788C32.8858 9.87957 32.8565 9.76213 33.0173 9.63001C33.5065 9.25338 34.1119 9.06115 34.7278 9.08686C35.3083 9.09957 35.8783 9.24517 36.3943 9.51257C36.5732 9.61232 36.7651 9.68644 36.9645 9.73277C36.9645 9.73277 38.4264 6.18024 38.4264 6.01876C38.2393 5.80046 38.001 5.63245 37.7329 5.52992C37.4649 5.42739 37.1757 5.39359 36.8914 5.43156V5.43156ZM27.0382 11.5971C26.9872 10.5481 26.6872 9.52651 26.1634 8.61747C25.6396 7.70842 24.907 6.93823 24.0267 6.37108C22.9806 5.80436 21.8167 5.49188 20.6285 5.45873C19.4403 5.42559 18.2609 5.67271 17.185 6.18024C15.6639 6.98569 14.5154 8.35489 13.9835 9.99701C13.434 11.8355 13.434 13.7956 13.9835 15.6341C14.2715 16.6389 14.8099 17.5534 15.5477 18.2912C16.4666 19.1916 17.6516 19.7685 18.9247 19.9353C19.7419 20.0039 20.5634 20.0039 21.3807 19.9353C21.6814 19.8894 21.9792 19.8256 22.2724 19.7445C23.4623 19.4102 24.5329 18.7426 25.3587 17.8197C26.1846 16.8968 26.7316 15.7568 26.9359 14.5331C27.0818 13.5616 27.1161 12.5765 27.0382 11.5971V11.5971ZM20.9567 18.9371C19.4948 19.3775 18.3984 17.9535 18.0329 14.9588C17.8987 13.391 17.8987 11.8144 18.0329 10.2466C18.3253 7.83907 19.0709 6.62063 20.2258 6.62063C20.4588 6.60613 20.6918 6.64788 20.9055 6.74238C21.1191 6.83687 21.3071 6.98137 21.4538 7.16379C22.4332 8.14734 22.9156 10.0998 22.9156 13.0357C23.0373 14.6973 22.7772 16.3648 22.1555 17.9095C21.8809 18.36 21.4562 18.6981 20.9567 18.8637V18.9371V18.9371ZM47.2708 5.72516C46.8583 5.67186 46.4407 5.67186 46.0282 5.72516C45.2364 5.72448 44.4537 5.8947 43.733 6.22428L43.2799 6.41512V3.22958C43.3591 2.15452 43.3591 1.07506 43.2799 0C43.1044 0 37.52 1.07163 37.4323 1.11567C37.3892 1.22405 37.3892 1.34493 37.4323 1.45331C37.4323 1.76159 37.4323 1.74691 38.0901 1.89371C38.2748 1.9353 38.4522 2.00458 38.6164 2.09923C38.9018 2.36869 39.0917 2.72435 39.1573 3.11214C39.3238 4.22931 39.3776 5.36049 39.3181 6.48852V19.3775L39.7128 19.4655C40.2976 19.5977 41.9495 19.8766 42.4904 19.9353C43.5705 20.0216 44.6557 20.0216 45.7358 19.9353C46.9347 19.8123 48.0774 19.3632 49.0409 18.6363C50.0043 17.9094 50.752 16.9323 51.2033 15.8102C51.4724 15.0901 51.6588 14.3415 51.7588 13.5789C51.8459 12.546 51.8115 11.5063 51.6565 10.4814C51.4997 9.33262 50.9947 8.26004 50.2102 7.4092C49.4256 6.55835 48.3995 5.97042 47.2708 5.72516V5.72516ZM43.4407 18.6875C43.4407 18.4967 43.2945 12.0669 43.3237 9.49789V7.48675L43.7477 7.38399C44.0337 7.34283 44.3241 7.34283 44.6102 7.38399C44.9265 7.35169 45.2447 7.42384 45.5166 7.58951C46.0625 7.96786 46.5159 8.46565 46.8425 9.0454C47.1692 9.62514 47.3606 10.2717 47.4024 10.9365C47.5089 12.0055 47.5089 13.0825 47.4024 14.1514C47.3149 15.7051 46.7187 17.1862 45.7066 18.3646C45.4193 18.6386 45.0585 18.8222 44.6687 18.893C44.3736 18.9446 44.0719 18.9446 43.7769 18.893C43.4991 18.893 43.4991 18.8049 43.4991 18.6875H43.4407Z"/></svg>