<svg xmlns="http://www.w3.org/2000/svg" width="140" height="20" fill="none" viewBox="0 0 140 20"><path fill="#8A939B" d="M26.1306 6.66667H39.2075V0H26.1306V6.66667Z"/><path fill="#8A939B" d="M0 0V6.66667H6.52681V20H13.0536V6.66667H19.6037V0H0Z"/><path fill="#8A939B" d="M19.6037 20H39.2074V13.3333H26.1305V6.66663H19.6037V20Z"/><path fill="#8A939B" d="M55.8741 5.03491H46.2704V7.8088H49.4872V16.5034H52.6573V7.8088H55.8741V5.03491Z"/><path fill="#8A939B" d="M59.4872 7.71558C57.2261 7.71558 55.5478 9.23072 55.5478 12.2144C55.5478 14.8484 56.9697 16.6899 59.5571 16.6899C60.9091 16.6899 62.0047 16.3403 63.0536 15.7109L61.9347 13.8228C61.0723 14.2657 60.4662 14.4289 59.697 14.4289C58.9044 14.4289 58.345 14.0093 58.2284 13.0536H63.2867C63.31 12.9137 63.31 12.7272 63.31 12.4708C63.3333 9.27735 61.8648 7.71558 59.4872 7.71558ZM58.2751 11.2121C58.3683 10.3496 58.7413 9.90672 59.4173 9.90672C60.2797 9.90672 60.5828 10.3496 60.7226 11.2121H58.2751Z"/><path fill="#8A939B" d="M68.9278 14.289C68.1352 14.289 67.7156 13.5897 67.7156 12.2144C67.7156 10.8624 68.0886 10.0932 68.8578 10.0932C69.4872 10.0932 69.7669 10.4428 70.1865 11.2121L72.2145 9.67362C71.4685 8.4615 70.5361 7.71558 68.9044 7.71558C66.1539 7.71558 64.8019 9.53376 64.8019 12.1678C64.8019 15.0582 66.317 16.6666 68.8345 16.6666C70.3497 16.6666 71.2821 16.0839 72.2844 14.6153L70.4196 13.1468C69.8602 13.986 69.4872 14.289 68.9278 14.289Z"/><path fill="#8A939B" d="M79.0909 7.71558C78.0653 7.71558 77.4592 8.06523 76.9231 8.4615V4.56873L73.9627 5.75754V16.5268H76.9231V11.6084C76.9231 10.5361 77.296 10.2331 77.9254 10.2331C78.5315 10.2331 78.9044 10.5361 78.9044 11.6317V16.5268H81.8648V11.2587C81.8648 8.99763 80.9557 7.71558 79.0909 7.71558Z"/><path fill="#8A939B" d="M88.9744 13.9161C87.5991 13.9161 87.0396 12.5175 87.0396 10.7693C87.0396 8.95107 87.6224 7.6224 88.9511 7.6224C90 7.6224 90.3963 8.29839 90.7925 9.37065L93.683 8.22846C92.8904 6.06063 91.7716 4.84851 88.9511 4.84851C85.8741 4.84851 83.7063 7.08627 83.7063 10.7693C83.7063 14.1725 85.5245 16.69 88.9277 16.69C91.655 16.69 92.9371 15.2215 93.7063 13.7296L91.0256 12.3077C90.3963 13.38 89.9767 13.9161 88.9744 13.9161Z"/><path fill="#8A939B" d="M98.4615 8.53143V7.90205H95.5012V16.5035H98.4615V11.8181C98.4615 10.7692 98.9044 10.4195 99.627 10.4195C100.21 10.4195 100.629 10.7226 101.002 11.1422L101.702 8.08854C101.352 7.87875 100.932 7.71558 100.303 7.71558C99.5338 7.71558 98.951 8.04192 98.4615 8.53143Z"/><path fill="#8A939B" d="M108.019 12.8205C108.019 13.8928 107.646 14.1958 107.04 14.1958C106.434 14.1958 106.061 13.8928 106.061 12.7972V7.9021H103.1V13.1702C103.1 15.4312 104.009 16.69 105.897 16.69C106.9 16.69 107.529 16.3403 108.042 15.9441V16.5268H111.002V7.92541H108.042V12.8205"/><path fill="#8A939B" d="M118.252 7.71558C117.226 7.71558 116.62 8.06523 116.084 8.4615V7.87875H113.124V16.4801H116.084V11.5617C116.084 10.4895 116.457 10.1864 117.086 10.1864C117.692 10.1864 118.065 10.4895 118.065 11.585V16.4801H121.026V11.2121C121.026 8.99763 120.14 7.71558 118.252 7.71558Z"/><path fill="#8A939B" d="M126.9 14.289C126.107 14.289 125.688 13.5897 125.688 12.2144C125.688 10.8624 126.061 10.0932 126.806 10.0932C127.436 10.0932 127.716 10.4428 128.135 11.2121L130.163 9.67362C129.417 8.4615 128.485 7.71558 126.853 7.71558C124.103 7.71558 122.751 9.53376 122.751 12.1678C122.751 15.0582 124.266 16.6666 126.783 16.6666C128.298 16.6666 129.231 16.0839 130.233 14.6153L128.368 13.1468C127.855 13.986 127.459 14.289 126.9 14.289Z"/><path fill="#8A939B" d="M137.063 7.71558C136.037 7.71558 135.431 8.06523 134.895 8.4615V4.56873L131.935 5.75754V16.5268H134.895V11.6084C134.895 10.5361 135.268 10.2331 135.897 10.2331C136.503 10.2331 136.876 10.5361 136.876 11.6317V16.5268H139.837V11.2587C139.86 8.99763 138.951 7.71558 137.063 7.71558Z"/></svg>