<svg xmlns="http://www.w3.org/2000/svg" width="190.398" viewBox="0 0 222.398 48.187"><g fill="#8A939B" data-name="Group 27"><path d="M46.166 0l-.321.125-.32.092-.32-.143-.32-.069-.317.239-.319-.067-.318.089-.319-.247-.318.024-.318.165-.319-.05-.318.026-.316-.013-.318.016-.318-.1-.317.051-.318-.049-.318-.087-.319.111h-.318l-.317.126-.318-.173-.318.131-.294.008-.262.133-.235.162-.357.077-.123.3-.131.292-.059.32.111.322-.095.326.085.322-.009.322-.065.321.026.321.032.321.06.322-.1.321.142.321-.2.321.133.32-.1.32-.029.32.167.321-.175.32.04.321.092.321-.061.321.122.32-.216.321.2.32-.066.321.082.321-.183.32.156.32.02.32-.115.32.017.32-.114.321.179.32.055.32-.069.32.024.319-.107.319.043.319.089.319-.164.32-.011.32.116.32-.122.32-.016.32.156.319-.062.319-.112.318.241.318-.209.318.009.318.049.318-.074.319.034.318.122.318-.145.318.138.319-.041.319-.075.319.179.32-.164.32-.007.32.111.32-.11.319.013.319.107.319.076.319-.171.319.162.32-.125.319.068.319.041.32-.079.32-.124.32.145.32.081.319-.14.319-.11.319.175.319-.032.319-.085.319.123.319-.049.319-.051.319.018.319.11.319-.116.319.162.319-.2.319.178.32-.023.32-.02.32.006.32-.172.319-.005.319.052.319.091.319-.151.319.138.319.015.318.009.319.041.319.006.318-.222.318.156.319-.062.318.038.319.081.318-.106.319.094.318-.069.319-.085.319-.022.319.176.319-.094.319.053.319-.16.319.159.319.079.32-.006.32-.077.319v.319l.046.319v.319l.028.319-.218.319.166.318-.147.318.072.318.027.318-.13.318.105.318-.1.318.1.318-.094.318.06.318-.026.318.115.318.054.318-.04.317.04.319-.078.318.023.317.041.295v.328l.184.261.2.259.317.092.3.051.294.164.329-.128.329.041h.328l.328.106.326-.035.326-.155.327.094.328-.079h.326l.327.039.327-.006.326.123.324-.081.326.049.326-.011.325.013.326-.188.327.01.326.006.326.234.326-.017.326-.035.326-.084.332.11.309-.124.139-.35.182-.211.193-.211.08-.274-.006-.282.216-.321.018-.322-.093-.32-.1-.32.126-.319-.018-.319.048-.319-.082-.319-.021-.319-.092-.319.207-.319-.2-.318.224-.317-.23-.318.209-.319-.183-.318.213-.318-.162-.319-.013-.319.008-.318.145-.318-.123-.318.152-.319-.048-.319-.185-.318.215-.318-.112-.317.043-.318-.036-.318.029-.319-.1-.318.174-.318-.171-.317.153-.318-.138-.317.144-.317-.06-.317.046-.317-.179-.318.095-.318-.036-.318.021-.317.067-.317-.086-.317.091-.316.02-.316-.014-.315-.045-.315-.143-.316.046-.315v-.316l.087-.315-.108-.316.1-.312.244-.229.166-.223.158-.241.187-.271.342.081.272-.235.323.03.323-.047.323.208.322-.173h.32l.321.135.321.013.321-.026.321-.069.32-.066.321.159h.32l.319.006.32-.13.321-.1.32.085.32.05.321.112.32-.241.32.172.32.076.32-.018.321-.073.32-.111.32-.05.319.184.32-.133.319-.043.284.237.347-.064.143.339.214.183.115.257.2.235.15.3-.137.321.079.322-.14.32.007.32-.007.318.066.319.137.319-.206.319.147.319.034.319-.182.319.089.318-.048.317.085.318-.13.319.064.318.063.318-.026.319-.109.319.231.318-.179.318.168.318-.188.319.125.318-.119.318.132.318-.005.317.02.318.064.318-.026.319-.226.318.041.318.089.317-.066.317.165.317-.145.317-.074.317.043.317.194.318-.09.318-.155.318.128.317-.088.317.043.317.154.316-.21.316.073.315-.008.315.161.316-.116.316-.112.315.049.316.147.316-.006.29.031.306.073.333.349.093.249.154.252.2h.314l.319-.136.319.192h.318l.318.012.316-.107.316-.025.317.006.317.169.317-.234.315.176.317.045.315-.161.315.1.315-.079.316.113.315-.225.316.1h.316l.317-.073.315.18.316-.041.316-.159.316.249.327-.049.316-.1.206-.269.11-.3.3-.16.124-.29-.041-.315.126-.323v-.323l-.008-.323-.178-.322.2-.321-.214-.321.044-.321.178-.322-.155-.321-.066-.32.068-.322.124-.319-.188-.32.189-.32v-.321l-.061-.32v-.321l.093-.321-.173-.321.15-.32-.226-.321.013-.32.139-.321-.05-.321v-.319l.1-.321-.1-.32-.072-.32.17-.32.026-.321-.164-.32-.036-.32.095-.32.079-.319.039-.319v-.319l-.043-.319.015-.32-.185-.32.015-.32.207-.32-.249-.32.1-.319.045-.319v-.319l-.123-.318.193-.318-.08-.318.066-.318-.1-.319-.006-.318.062-.318-.034-.318.048-.319-.015-.319v-.32l-.027-.319-.123-.32.131-.32.1-.32-.006-.319-.119-.32.027-.319.061-.319-.194-.319.095-.32.03-.319.086-.32-.233-.319.24-.32-.219-.32.083-.32.078-.319-.171-.32.09-.319.083-.319-.1-.319-.016-.319-.026-.319.027-.319.126-.319v-.319l-.041-.319-.142-.319.212-.319-.086-.319-.051-.32.007-.32-.023-.32.149-.32.019-.32-.054-.319.013-.319-.2-.319.042-.319.059-.319-.1-.319.112-.319.023-.319-.132-.318.183-.319-.1-.319v-.318l.063-.319-.16-.318v-.319l.048-.318.007-.319-.06-.319.126-.319.024-.319.053-.319.023-.319v-.319l-.063-.32.093-.319-.009-.32-.048-.319-.021-.319-.142-.319.143-.318.022-.319-.015-.319v-.318l-.156-.318.045-.318.171-.318-.033-.318-.023-.318-.177-.318.114-.318.127-.318-.118-.318-.033-.318.036-.318.077-.318-.1-.318v-.635l.026-.318-.013-.313-.265-.22.044-.386-.26-.2-.312-.088-.3-.035-.283-.2-.322.132-.322-.168-.321.144-.32-.05-.319.1-.319-.083-.319.141-.321-.217-.319.122-.319.042-.32-.2-.318.073-.319.033-.318.077-.319-.174-.319.116-.319.086-.319-.016-.319.053-.319-.013-.318-.144-.319.095-.319-.011-.3.012-.275.116-.307.088-.1.32-.179.223-.233.24v.318l-.029.326.142.324-.08.324-.018.324-.035.322.1.322-.107.323.007.323.082.322-.119.322.089.323-.041.321-.054.321.059.322.133.322-.213.322.161.322-.04.322-.073.322.12.322-.062.322-.1.322.089.322-.052.322.177.322-.209.321.123.321-.119.322.222.322-.169.322.182.322-.14.322.145.321-.123.321.1.321-.2.321.021.32.14.322-.07.321-.1.321.186.322-.217.321.218.321-.088.32-.077.32.206.32-.186.32v.32l.169.319-.231.32.007.32.085.3v.338l-.346.145-.206.194-.139.354-.364-.11-.28.147-.328.109-.328-.122-.327.08-.327-.116h-.324l-.326.129-.325.031-.326-.23-.325-.014-.324.212-.326-.167h-.325l-.323.175-.323-.115-.326.123-.324.014-.325-.161-.324.147-.326-.116-.324.088-.324.012-.324-.087-.326.022-.325-.144-.324.224-.324-.188-.323.013-.324-.061-.3.086h-.332l-.274-.178-.206-.249-.081-.312-.226-.25.16-.324-.089-.326-.024-.325-.013-.324.013-.324.015-.322-.063-.322.054-.323-.116-.323.159-.322-.148-.322.07-.323.059-.321.018-.321-.014-.321-.058-.323-.093-.322.217-.322-.142-.322-.029-.323v-.322l.042-.321-.039-.322.2-.323v-.322l-.1-.321-.048-.322-.1-.321.009-.321.038-.322.2-.322-.017-.322-.114-.322-.1-.321V6.95l-.005-.32.065-.321.168-.32-.116-.321.134-.321-.053-.322-.049-.322-.018-.321.017-.321-.06-.32.127-.32-.006-.32-.095-.32-.1-.32.116-.319.015-.319-.014-.32.041-.321-.152-.284-.242-.2-.118-.316-.264-.189-.3-.136z" data-name="Path 7"/><path d="M124.724.359h-.317L124.09.25l-.321.035-.317.144-.327-.178-.322.018-.321.014-.308.138-.312.062-.317.039-.343-.116-.273.288-.348-.107-.322.029-.268.236-.333-.01-.281.171h-.339l-.219.322-.331.029-.291.129-.255.2-.366-.014-.26.191-.191.3-.4-.038-.258.193-.267.181-.177.292-.154.308-.346.091-.244.208-.165.284-.306.155-.208.246-.191.259-.042.362-.347.152.014.384-.194.253-.305.2v.355l-.066.315-.177.269-.219.264.1.355-.243.279-.053.321.01.328-.046.32-.136.308.129.344-.187.3.188.346-.045.319-.169.309.023.327-.028.323-.124.318.086.33.057.327-.179.319-.034.325.163.327.038.323-.089.325-.068.327-.023.327.018.325.07.321.017.324.223.3.031.32-.15.355.307.27-.024.335.037.324.094.31.222.258-.049.37.217.256.1.315.248.228.18.267.13.3.216.243.154.288.211.248.2.256.226.232.3.168.111.33.139.309.221.237.306.159.2.255.177.278.364.1.156.3.2.252.166.291.393.065.06.4.384.071.172.285.177.281.351.1.17.289.175.283.3.151.244.21.252.2.215.241.147.312.231.222.262.19.33.116.087.374.292.159.268.184.229.226.248.206.129.329.218.236.267.184.22.233.366.086.2.257.182.27.292.166.138.312.2.254.311.157.06.365.271.2.17.267.1.305.284.214.126.3.071.317.1.3.147.29-.043.339.045.313.007.319.025.313.043.31.094.307-.071.319.022.311.052.313.015.314.126.323-.168.3-.059.308-.035.31-.062.306.071.346-.142.29-.277.223-.114.283-.157.259-.112.349-.345.059-.31-.076-.342.124-.344.02-.322-.121-.218-.247-.271-.212-.138-.314-.085-.31-.035-.322-.027-.322-.219-.3.207-.351-.076-.317-.123-.314-.095-.318.146-.337-.156-.313.146-.333-.165-.313.03-.326-.115-.317.065-.326-.158-.315.2-.332-.116-.291-.311.044-.321-.2-.32.072-.319.033-.318.077-.318-.174-.319.116-.319.086-.318-.017-.318.053-.319-.013-.318-.144-.317.095-.316-.011-.319-.022-.318.018-.318-.09-.318.156-.318-.033-.318-.141-.318.035-.318-.029-.318.142-.318-.081-.317-.017-.318-.035-.317.1-.317-.107-.318.007-.318.082-.318-.119-.319.09-.046.32-.053.318.059.32.133.318-.214.318.161.318-.039.319-.074.319.12.318-.062.32-.1.319.09.318-.052.316.176.317-.209.317.123.316-.119.317.222.316-.169.317.181.317-.139.314.176.295-.057.334.181.28-.1.368.128.3.249.247.066.322.052.335.313.2-.032.388.352.163.1.318.119.311.357.137.051.369.209.247.34.128.053.393.235.226.318.134.314.127.11.372.252.206.394.006.138.369.336.077.331.071.221.264.322.079.239.246.295.136.347.006.31.088.226.326.3.116.37-.109.266.247.315.077.353-.1.292.178.339-.064.319.036.3.2.337-.108.31.147.328-.062.323.007.319.1.324-.014.09.041h.384l.173-.121.218.121h.905l.159-.074.307-.142.315-.034.318-.015.332.045.29-.188.353.126.292-.16.3-.105.3-.1.306-.084.306-.089.276-.172.316-.071.244-.235.356.007.215-.279.312-.092.3-.114.28-.156.257-.192.223-.235.192-.268.383-.038.145-.318.209-.239.225-.223.246-.205.178-.266.353-.127.2-.257.1-.322.135-.293.08-.323.165-.27.182-.262.322-.2.119-.3.02-.339.02-.333.108-.3.094-.3.153-.286.245-.266-.037-.339.2-.286.009-.327v-.326l.026-.32.054-.317-.031-.324.149-.312.008-.322-.086-.323-.1-.32.11-.321v-.321l-.032-.319.051-.326-.081-.315-.133-.307.1-.336-.031-.32-.028-.322-.055-.318-.19-.288-.162-.29.06-.352-.013-.329-.314-.251-.021-.326-.174-.285.147-.378-.117-.3-.254-.255-.052-.321-.127-.3-.093-.307-.125-.295-.021-.334-.163-.28-.075-.314-.043-.329-.23-.252-.127-.3-.249-.237.016-.365-.26-.228-.126-.3-.185-.263-.167-.273.011-.377-.217-.244-.15-.285-.157-.281-.2-.249-.189-.259-.25-.212-.134-.3-.354-.124-.192-.254-.088-.348-.353-.111-.155-.292-.256-.2-.2-.255-.226-.228-.144-.321-.278-.171-.261-.189-.215-.247-.257-.2-.3-.131-.252-.2-.335-.08-.266-.177-.262-.185-.263-.183-.181-.305-.391.022-.173-.317-.252-.2-.282-.154-.226-.233-.4.007-.165-.318-.318-.112-.184-.28-.208-.244-.284-.163-.232-.221-.1-.329-.2-.238-.164-.267-.156-.272-.33-.188.034-.366-.289-.232v-.34l-.2-.279-.073-.314.032-.332-.17-.3.144-.337-.042-.314.07-.319-.063-.314-.165-.323.185-.309-.006-.318.038-.314-.081-.333.15-.3.149-.292-.028-.33.047-.335.226-.258.28-.169.267-.179.317-.075.329-.116.332.068.272.2.2.23.331.157.061.334.146.291.068.315.005.326.141.3-.045.33.016.319.041.316.065.315.157.314-.039.322.007.32-.089.319.1.322-.111.271.3.156.321.025.321-.054.321-.126.316.2.321-.2.318.034.32-.043.316.212.32-.169h.319l.316.139.317.017.318-.023.32-.065.318-.062.316.163.318.007.319.01.319-.126.319-.1.317.089.318.054.316.115.321-.237.315.177.317.08.317-.013.319-.07.32-.107.318-.047.333.185-.1-.37-.043-.327.2-.329-.177-.327.212-.327-.022-.328.04-.328-.106-.328-.116-.329.137-.329-.079-.328.14-.327-.006-.327.006-.327-.066-.326-.137-.327.207-.326-.147-.327-.034-.327.182-.324-.131-.314-.036-.32-.184-.271v-.345l-.194-.263-.2-.252-.134-.288-.076-.328-.369-.133-.04-.361-.327-.145-.058-.364-.305-.153-.132-.313-.318-.129-.228-.218-.251-.191-.283-.148-.232-.212-.124-.368-.287-.145-.315-.1-.238-.219-.357-.01-.212-.275-.254-.207-.309-.094-.368.054-.259-.2-.246-.257-.344.018-.276-.18-.318-.048-.346.068-.257-.279h-.326l-.309-.07-.339.1-.293-.165-.3-.154-.321.009-.33.114-.311-.066-.311-.095-.311-.135z" data-name="Path 8"/><path d="M166.479.337l-.318-.15-.318.226-.318-.012-.319-.14-.318.051h-.319l-.319-.1-.319.1-.318.072-.319-.17-.319-.026-.319.165-.319.037-.318-.1-.318-.079-.318-.039h-.318l-.319.044-.319-.015-.318.185-.318-.015-.318-.207-.318.249-.317-.1-.317-.045h-.318l-.318.123-.318-.193-.318.081-.318-.067-.318.1-.317.006-.317-.062-.316.035-.317-.049-.316.015h-.316l-.316.027-.316.122-.317-.131-.316-.1-.317.006-.317.119-.317-.027-.318-.062-.318.194-.318-.095-.318-.03-.317-.086-.318.233-.318-.239-.317.219-.317-.083-.318-.078-.317.171-.317-.09-.318-.083-.318.1-.318.016-.318.026-.317-.027-.318-.126h-.318l-.317.041-.317.143-.317-.213-.317.086-.317.05-.317-.006-.317.023-.317-.148-.317-.019-.317.054-.317-.013-.275.226-.279.055-.279.106-.137.272-.249.187-.124.281.1.307-.183.329.1.329v.328l-.064.328.16.326v.327l-.047.327-.007.327.06.327-.126.326-.024.327-.053.326-.023.325v.325l.062.327-.092.326.009.326.048.326.021.326.142.327-.107.313.085.308.182.262.224.224.336.029.256.137.29.2.317-.033.316-.023.315-.177.315.114.313.128.313-.119.314-.033.314.037.313.077.313-.1h.627l.312.027.312.022.314-.178.312.246.314-.043.313-.092.313-.067.313.172.313-.132.313.168.307-.109.268.147.312.082.16.277.288.191-.1.362.153.282.042.325-.2.324.073.324.033.323.078.322-.174.322.115.323.086.323-.017.322.053.322-.013.323-.144.321.095.32-.011.321-.022.322.018.321-.089.322.155.322-.033.322-.147.329.035.321-.028.322.142.322-.081.321-.017.321-.035.321.1.321-.107.321.007.321.082.322-.119.321.089.321-.041.32-.053.321.059.32.133.32-.213.321.162.321-.04.321-.073.322.119.321-.062.321-.1.32.089.32-.052.32.177.319-.209.319.122.319-.119.319.222.319-.169.319.181.319-.139.32.145.32-.124.32.1.321-.2.321.02.321.14.321-.07.32-.1.321.186.32-.217.321.218.32-.088.32-.077.321.207.321-.187.32v.321l.169.32-.231.321.006.321.119.32.113.321-.217.32-.008.32.227.32-.226.32.116.319.109.32-.122.32.08.32-.116.32v.32l.129.321.03.32-.23.32-.014.321.211.321-.167.321v.32l.175.32-.116.32.123.32.014.32-.161.32.147.319-.116.32.088.319.012.32-.087.32.022.319-.144.32.224.319-.188.319.014.32-.061.32.12.32.11.319v.32l-.03.32-.1.321.163.28-.083.351.243.22.232.2.259.15.277.111.3.049.324-.063.324.054.323-.116.277.137h.093l.273-.127.321.071.314.057h.685l.287-.052.321-.093.215.145h.266l.159-.071.32-.029.322.005.32.042.321-.039.151.092h.834l.3-.045.321-.1.321.01.321.038.157.1h.546l.2-.162.19-.24.2-.2.144-.237.155-.246.2-.289-.116-.325.134-.325-.053-.324-.049-.323-.017-.321.017-.322-.06-.323.127-.323-.006-.322-.095-.322-.1-.322.116-.322.014-.321-.013-.321.077-.322-.05-.322-.1-.321.141-.322.02-.322.028-.321.007-.321-.124-.322-.092-.322.143-.322.069-.321-.239-.321.067-.321-.089-.321.247-.321-.024-.322-.165-.322.05-.321-.026-.321.013-.32-.016-.32.1-.321-.051-.32.049-.321.086-.321-.111-.321.005-.321-.126-.321.173-.321-.13-.319.024-.32-.038-.32-.012-.319.2-.319-.059-.319.025-.319.023-.319-.027-.319v-.32l-.075-.32.079-.32-.2-.32.017-.321.164-.321-.185-.321.09-.321-.043-.32.047-.321.015-.32.145-.32-.05-.321-.018-.32.061-.321v-.321l-.075-.32.017-.321-.125-.321v-.321l.01-.321.01-.32.159-.321-.23-.32.173-.32.03-.32-.027-.32.066-.32-.232-.32.159-.32-.105-.32.1-.32.045-.32-.079-.321-.017-.32.136-.321-.017-.32.014-.321.005-.32-.206-.32.181-.32-.187-.32.109-.319-.116-.32v-.32l.092-.32-.124-.32.179-.319-.019-.319.082-.32-.061-.32-.174-.319.168-.32-.032-.319v-.32l-.128-.32.1-.32.086-.32-.108-.32-.049-.32.094-.307.162-.262.124-.274.212-.217.211-.255.317-.073.316.032.319.125.32-.2.318.069.318.053.316.044.317-.039.317.006.318.063.317-.181.316-.068.317.161.316-.164.315.107.315.085.317-.107.315-.005.316.138.317-.006.317-.023.315.015.317-.008.29-.157.3-.043.287-.127.235-.215.2-.255-.036-.342.2-.292-.17-.329.016-.33-.061-.328.134-.328-.127-.326.032-.327.032-.327.087-.327v-.326l-.131-.327.025-.327-.008-.326-.006-.324v-.326l.037-.326-.024-.326.1-.326-.167-.327.22-.326-.072-.326.065-.332-.123-.31-.363-.131-.107-.308-.27-.151-.282-.131-.311.048-.323-.023-.32.066-.321-.068-.32-.124-.319.188-.32-.189h-.319l-.32.061h-.319l-.319-.092z" data-name="Path 9"/><path d="M185.752.298l-.324.043-.324.034-.322-.077-.323.035-.323-.068h-.646l-.322.11-.323.049h-.322l-.321-.165-.322.076-.323-.133-.322.137-.322-.017-.322.089-.323-.015-.322-.135-.322.056-.322-.114-.322.007-.322-.03-.3.169-.3.07-.164.289-.309.1-.115.284-.146.268-.035.3-.039.326.142.323-.142.324-.022.323.015.322V3.6l.155.322-.045.323-.171.322.033.322.022.322.177.321-.114.32-.128.321.119.322.033.321-.036.322-.077.322.1.322v.643l-.027.322-.022.322.178.321-.246.322.043.321.092.321.067.321-.172.322.132.322-.169.321.144.321-.05.321.1.32-.083.32.142.32-.217.32.122.321.042.321-.2.321.073.321.032.321.077.32-.174.32.115.32.086.319-.017.319.053.319-.013.319-.144.319.095.319-.011.319-.023.32.018.32-.089.32.156.32-.033.321-.14.321.035.321-.029.32.142.32-.08.321-.018.32-.034.321.1.32-.108.32.007.321.082.321-.119.32.09.321-.042.32-.053.321.058.32.133.32-.213.32.162.32-.04.32-.073.32.119.32-.062.32-.1.32.089.32-.052.32.177.32-.209.32.122.321-.119.32.223.321-.17.32.182.321-.139.32.145.32-.124.32.1.32-.2.32.02.32.14.32-.069.32-.1.32.185.319-.218.319.218.319-.087.32-.078.32.207.319-.209.319v.32l.169.32-.231.32.006.32.119.32.112.32-.216.32-.009.32.227.321-.227.321.116.32.109.32-.121.32.08.32-.116.32v.319l.129.32.03.32-.229.319-.014.319.211.319-.167.319v.319l.176.319-.116.319.124.319.014.319-.161.319.147.319-.116.319.088.319.012.319-.087.319.056.3-.031.344.351.139.081.345.279.16.287.166.331-.083.325-.11h.325l.324.031.325.1.322-.131.323.2.322-.089.324-.025.322-.012.322.012.323.016.321-.064.321.054.321-.116.323.16.321-.15.323.07.322.059.323.018.321-.014.322-.058.322-.093.322.216.322-.141.322-.03h.321l.321.042.322-.039.321.195h.323l.322-.1.321-.048.321-.1.32.009.321.038.321.2.321-.017.321-.114.321-.1h.644l.321.065.321.168.32-.116.321.134.32-.053.32-.049.319-.017.32.017.319-.06.32.127.32-.005.32-.095.32-.1.3.082.295-.089.253-.175.276-.168.128-.295.01-.316.173-.289.019-.319.028-.319.007-.319-.125-.318-.092-.316.143-.317.069-.317-.239-.318.067-.317-.089-.317.247-.317-.024-.315-.165-.315.05-.315-.026-.317.012-.316-.016-.315.1-.317-.05-.317.049-.316.049-.331-.21-.265-.161-.264-.3-.12-.162-.305-.33.02-.288-.057-.317.039-.316.012-.315-.2-.315.059-.313-.026-.314-.023-.314.027h-.314l-.314.075-.313-.079-.313.2-.313-.017-.311-.164-.313.185-.313-.09-.313.043-.313-.047-.313-.014-.314-.145-.313.049-.313.019-.313-.061-.275-.03-.294-.025-.237-.17-.3-.127-.171-.267-.1-.3-.026-.314.159-.323-.23-.324.173-.323.03-.323-.027-.32.066-.321-.233-.321.159-.322-.105-.321.1-.321.045-.321-.08-.32-.016-.319.136-.32-.017-.321.014-.32.006-.321-.207-.321.181-.321-.186-.32.108-.321-.115-.321v-.337l.093-.321-.124-.32.18-.32-.019-.32.082-.32-.061-.32-.173-.321.167-.32-.032-.32v-.318l-.128-.32.1-.319.085-.319-.108-.319-.049-.319.059-.32.066-.321-.042-.32v-.32l-.1-.319.036-.319.068-.318.126-.319-.2-.318.068-.318.053-.318.044-.318-.04-.319.006-.318.063-.318-.18-.319-.068-.319.161-.319-.164-.32.107-.32.085-.32-.107-.319-.005-.319.139-.32-.007-.319-.023-.319.015-.32-.007-.319-.125-.319.061-.319.046-.32.015-.32.035-.32-.148-.319.162-.32-.17-.319.016-.319-.061-.319.134-.319-.127-.319.031-.319.033-.319.087-.319v-.319l-.13-.319.025-.319-.007-.319-.007-.319v-.32l.037-.32-.024-.319.1-.32-.167-.319.22-.319-.071-.319.1-.319-.013-.319-.238-.319.142-.319-.017-.319.03-.319-.083-.318.094-.319-.091-.318.169-.319-.077-.318-.186-.319.07-.319-.054-.318.143-.319-.118-.319.056-.319.026-.319-.116-.281.025-.324-.222-.219-.144-.29-.333-.039-.229-.272-.325.026-.326-.088z" data-name="Path 10"/><path d="M203.246.663l-.322.021-.277.163-.171.274-.118.281-.065.286-.193.285.137.318-.149.331-.018.324.054.323-.013.321.2.323-.042.322-.059.323.1.322-.112.322-.023.323.132.321-.183.321.1.321v.322l-.063.321.16.321v.322l-.047.322-.007.321.059.322-.126.321-.024.322-.053.322-.023.321v.321l.064.321-.093.321.009.321.047.322.021.321.141.321-.142.32-.022.32.014.32v.32l.155.32-.044.32-.171.321.033.321.023.322.177.32-.114.321-.128.32.119.32.033.319-.037.319-.077.319.1.319v.638l-.027.319-.022.32.178.319-.246.32.043.32.093.321.066.321-.172.32.132.321-.168.321.144.32-.051.32.1.32-.083.32.142.32-.217.321.122.32.043.321-.2.32.073.321.032.321.077.32-.174.321.115.32.086.32-.016.32.053.32-.013.32-.143.32.094.32-.011.32-.023.32.018.32-.089.32.156.32-.033.321-.141.32.036.321-.029.32.142.321-.08.32-.018.32-.035.32.1.32-.107.32.007.32.082.319-.119.319.089.32-.041.32-.054.319.059.319.133.319-.214.32.162.32-.04.32-.073.32.12.319-.062.32-.1.32.09.32-.052.32.177.32-.209.321.123.32-.12.321.223.32-.169.32.181.32-.139.32.144.32-.124.319.1.319-.2.32.021.319.139.319-.069.319-.1.319.185.319-.218.319.218.319-.088.319-.078.319.207.319-.187.319v.319l.169.319-.23.319.043.326.217.258.248.184.061.365.271.181.359-.113.274.257.325-.115.325-.109.325.122.324-.08.322.116h.323l.323-.129.323-.03.322.23.322.014.323-.212.321.167h.322l.321-.176.322.116.322-.123.322-.014.322.161.323-.146.322.116.322-.088.322-.012.323.086.322-.022.321.144.322-.224.321.188.322-.014.322.061.322-.12.322-.109h.321l.321.03.321.1.32-.132.321.2.321-.089.321-.024.321-.013.322.013.322.015.321-.063.321.053.32-.115.32.159.32-.148.32.07.32.059.32.018.319-.014.32-.059.32-.093.32.216.32-.141.283-.061.27-.091.268-.119.179-.233.328-.157.11-.311-.065-.328-.048-.32-.1-.319.009-.319.037-.318.2-.317-.017-.317-.114-.317-.1-.318v-.634l.064-.317.168-.316-.116-.315.134-.315-.052-.317-.049-.315-.018-.317.017-.316-.061-.316.127-.317-.042-.321-.222-.258-.239-.193-.125-.289-.252-.176-.295-.09-.3-.111-.316.05-.316.1-.315-.141-.315-.019-.313-.029-.313-.006-.314.124-.314.092-.313-.143-.313-.069-.314.239-.313-.066-.312.088-.312-.247-.314.024-.313.165-.313-.05-.313.026-.313-.013-.313.016-.313-.1-.313.051-.293-.082-.24-.175-.3-.06-.208-.216-.273-.2.06-.348-.163-.287.025-.32-.039-.32-.011-.319.2-.319-.059-.318.026-.318.023-.318-.028-.319v-.317l-.074-.318.079-.318-.2-.317.016-.316.164-.317-.185-.317.09-.317-.043-.317.047-.317.014-.318.145-.317-.049-.317-.019-.317.061-.318v-.317l-.074-.317.049-.288-.015-.328.167-.27.231-.218.272-.16.332.05.277-.261.312.173.312.03.311-.027.311.067.309-.233.31.159.309-.105.311.1.309.045.31-.079.31-.017.331.1.307-.126.287-.165.238-.231-.008-.372.272-.23-.15-.327.108-.323-.115-.323v-.322l.092-.322-.124-.321.179-.321-.018-.321.082-.321-.061-.321-.173-.321.167-.321-.033-.32v-.319l-.128-.32.1-.321.086-.32-.108-.32-.049-.321.059-.321.067-.32-.042-.32v-.32l-.134-.279-.061-.281-.1-.287-.137-.313h-.367l-.257-.163-.3-.088-.312-.044-.312.039-.311-.006-.311-.062-.309.18-.31.069-.31-.162-.31.164-.309-.107-.31-.085-.309.107-.312-.03-.235-.229-.242-.145-.219-.187-.142-.251-.1-.268-.156-.285.06-.331.047-.331.015-.33.035-.329-.149-.328.163-.328-.17-.329.015-.329-.061-.328.134-.328-.127-.329.031-.327.032-.327.087-.327v-.328l-.131-.327.026-.328.028-.314.1-.3.17-.267.247-.2.251-.187.319-.007.291-.2.316.22.317-.072.315.1.315-.013.313-.238.313.142.314-.017.315.031.313-.083.313.094.314-.091.313.169.311-.077.313-.186.314.069.313-.054.313.143.314-.118.313.057.313.026.313-.084.313.132.294-.1.324-.006.178-.284.345-.089.118-.3.19-.275-.089-.331-.043-.324-.034-.324.077-.323-.034-.323.068-.321v-.642l-.109-.323-.049-.321v-.321l.165-.322-.076-.32.132-.32-.137-.32.017-.321-.089-.321.015-.321.135-.321-.056-.321.114-.321-.006-.321-.007-.331-.232-.255-.135-.277-.317-.1-.169-.278-.3-.049-.294-.082h-.325l-.325-.034-.324.03-.324.14-.322-.154-.323-.092-.322.063-.324.032-.322-.095-.322.1-.323-.066-.322.118-.321.006-.322.038-.322-.053-.322-.115-.322.113-.322-.138-.322.148-.322-.02-.322-.14-.322.251-.322-.166-.322.11-.322.033h-.321l-.321-.064-.322.078-.321-.126-.322.09-.322-.205-.322.156-.321-.073-.32.117-.321-.138-.321.052-.321-.023L208.7.49l-.322.212-.321-.011-.322-.134-.321.136-.321-.1-.32-.1-.32.095-.32-.1-.319.09-.319-.01-.32-.069-.319.054-.32.16-.32-.218h-.32l-.32-.027z" data-name="Path 11"/><path d="M97.69.333l-.324.1-.325-.06-.326.037-.313-.127-.245.214-.27.122-.279.155-.066.319-.152.262-.023.3.038.318-.079.318.078.319-.152.318.095.318.144.318-.071.318-.132.318.02.318.044.318-.085.319.115.318-.109.319-.038.319.164.319-.086.319.043.319v.319l-.04.319.053.32-.127.32.036.319-.048.319.11.319.076.319.018.319-.119.319.156.319-.035.319-.141.319.085.319-.025.319.064.319-.188.319.093.319.149.319-.008.32-.12.32.105.319-.208.32.164.319-.136.319.041.319.133.319-.161.319.034.319.05.319.074.319-.009.32-.089.319.147.32-.027.32v.319l-.218.319.161.318.054.318-.068.318-.011.318.091.318-.1.318.095.318-.1.318-.1.318.135.318-.134.319-.011.319.211.319-.083.32-.023.321.053.319-.138.319.116.319-.073.319.157.319-.205.319.09.319-.126.32.077.32-.063.32v.32l.033.32.11.319-.167.32.252.32-.139.32-.02.321.148.32-.138.32.112.32-.115.321-.053.32.037.32.006.32.118.321-.065.32.1.319-.095.32.032.321.064.321-.092.32-.153.322.14.321.03.321-.034.32v.322l-.049.322.054.323-.146.323.132.314-.1.3.026.344-.159.282-.153.284-.275.2-.164.274-.32.1-.288.08-.307.15-.334.027-.321.169-.346-.108-.321.087-.339-.154-.337.006-.337.051-.329.108-.33-.007-.33-.013-.327-.08-.331.017-.322-.1h-.659l-.349.072-.308-.157-.338-.04-.163-.3-.263-.25-.009-.349-.161-.3.05-.354-.148-.309-.026-.334.02-.334-.133-.324.144-.318-.054-.319.069-.318-.186-.318-.077-.318.169-.318-.091-.318.094-.318-.083-.318.03-.318-.017-.319.142-.319-.239-.319-.013-.319.1-.319-.071-.319.22-.319-.168-.32.1-.319-.024-.319.037-.319v-.319l-.006-.319-.008-.319.025-.319-.131-.319v-.319l.087-.319.032-.318.032-.319-.127-.319.134-.319-.061-.319.016-.319-.17-.319.162-.319-.148-.32.035-.319.015-.319.046-.319.061-.319-.125-.319-.008-.319.015-.319-.022-.319-.007-.319.138-.319-.005-.32-.106-.32.085-.32.107-.319-.164-.319.161-.318-.069-.318-.18-.318.063-.318.006-.318-.04-.318.044-.318.054-.318.068-.318-.2-.318.126-.319.068-.319.036-.319-.1-.32v-.32l-.042-.32.066-.319.059-.319-.049-.319-.108-.319.086-.319.1-.319-.128-.32v-.32l-.032-.321.167-.32-.173-.319-.061-.32.082-.32-.019-.32.179-.32-.124-.321.093-.321v-.32l-.115-.32.108-.321-.186-.32.181-.321-.207-.32.006-.32.014-.32-.017-.319.136-.32-.016-.321-.08-.321.045-.32.1-.322-.1-.321.159-.321-.233-.32.066-.322-.026-.323.03-.323.173-.323-.261-.277.05-.332-.16-.272-.218-.23-.27-.168-.328.016-.288-.05-.322.075h-.323l-.322-.061-.322.018-.322.05-.322-.145-.323-.014-.322-.047-.321.043-.323-.09-.321.185-.322-.164-.321-.017-.323.2-.322-.079-.323.075h-.323l-.323.027-.323-.023-.322-.026-.324.059-.324-.2-.326.012-.326.038-.315.011-.243.222-.352.019-.133.31-.164.251.01.308-.118.273-.048.326.051.327-.1.327.017.326-.013.326.026.327-.05.328.165.329.024.329-.247.3.089.3-.067.3.239.3-.069.3-.143.3.092.3.124.3-.007.3-.029.319-.019.319-.141.32.1.317.05.318-.077.318.013.319-.014.319-.116.319.1.32.095.319.006.319-.127.319.06.319-.017.319.017.319.05.319.053.319-.134.319.116.319-.168.319-.064.319v.638l.1.317.114.317.017.317-.2.318-.038.318-.009.318.1.318.049.318.1.318v.319l-.195.319.039.319-.043.319v.319l.029.319.142.319-.217.318.093.319.058.319.014.319-.041.342-.058.319-.07.32.149.319-.16.321.115.32-.054.32.063.32-.015.321-.013.321.013.321.024.321.089.321-.2.321.131.321-.1.321-.031.321v.321l.11.321.12.321-.061.321.014.321-.189.321.224.321-.144.321.022.321-.087.321.012.321.088.321-.116.321.147.321-.161.321.014.32.123.321-.116.321.176.32v.32l-.166.32.211.32-.014.319-.23.319.03.319.129.319v.319l-.116.319.079.321-.121.319.108.318.116.319-.227.319.227.318-.008.319-.216.317.112.317.119.336.007.335-.231.334.192.317.051.315-.118.354.277.265.012.331.012.336.31.236-.092.378.292.232.037.334.073.323.268.228.168.275-.014.382.257.226.076.341.306.184.087.344.347.136.091.356.386.077.154.308.325.115.131.363.368.036.249.21.326.068.253.218.284.17.343-.023.3.142.315.09.336-.131.317.223.319-.133.319-.059.319.054.319.041.317-.089.318.119.318-.082.318-.007.318.107.319-.1.319.035.319.018.319.08.319-.142.319.029.318-.036.318.141.319.033.319-.156.319.089.319-.018.32.022.32.011.321-.095.321.144.321.013.32-.053.32.017.321-.086.321-.116.32.174.321-.078.32-.032.321-.073.32.2.322-.042.322-.122.321.218.321-.142.321.083.32-.1.32.05.32-.144.319.169.32-.132.319.172.318-.066.318-.093.315-.043.326.237.3-.2.316-.022.317-.034.309-.077.3-.093.262-.2.319-.057.3-.111.261-.187.2-.269.332-.077.323-.107.129-.34.218-.23.2-.244.347-.099.245-.212.081-.345.192-.252.172-.266.194-.25.29-.194.041-.346.134-.287.1-.3.128-.288.214-.25.063-.318.11-.3.125-.29.144-.287.106-.3.194-.285v-.33l.046-.318.062-.322v-.319l-.161-.318.062-.318v-.319l-.1-.319.182-.319-.133-.318.023-.318.111-.319-.1-.318.058-.319.041-.317-.2-.317.012-.317-.054-.318.018-.317.148-.318-.023-.317.006-.318-.051-.318-.086-.317.211-.318-.143-.318-.041-.318v-.318l.125-.319.027-.318-.027-.318-.017-.318-.1-.318.082-.319.089-.319-.171-.318.077-.319.082-.319-.22-.318.239-.318-.233-.317.085-.318.029-.318.094-.318-.194-.318.061-.318.026-.319-.12-.318-.006-.319.1-.319.129-.319-.123-.319-.029-.319v-.318l-.016-.319.048-.319-.035-.319.062-.32-.008-.319-.1-.32.066-.32-.081-.32.192-.321-.124-.32v-.321l.044-.32.1-.322-.249-.32.206-.322.014-.321-.185-.32.014-.321-.045-.32v-.321l.038-.321.078-.32.094-.321-.037-.32-.166-.32.026-.321.168-.321-.072-.32-.1-.32.1-.321v-.321l-.051-.32.138-.321.013-.32-.227-.32.148-.321-.173-.32.091-.32v-.32l-.062-.32v-.32l.188-.321-.189-.319.123-.32.067-.32-.067-.319-.156-.319.177-.32.043-.319-.214-.319.2-.319-.178-.319-.008-.319v-.32l.125-.32-.078-.321.02-.32.165-.32-.136-.318-.119-.319.013-.32-.013-.32.248-.319-.16-.318-.042-.317.18-.32-.054-.315-.121-.295-.163-.248.011-.367-.353-.079-.181-.275-.309-.047-.3-.067-.322.156-.323-.175-.322.118-.322.047-.322-.019-.323-.036-.323-.173-.322-.013h-.644l-.322.132-.322-.031-.322-.047-.323.067-.323.032-.322-.086-.324-.047L98.64.16l-.323.122-.322-.127z" data-name="Path 12"/><path d="M2.389 25.607l-.239.146-.211.179.006.3-.013.211-.239.259-.019.26.178.26-.085.26.126.259-.138.259v.261l.126.261.044.262-.203.223-.19.112-.3-.116-.269.11-.275.085-.165.259-.144.205-.1.215-.28.241.259.226.039.233.068.266.168.22.316-.031.241.058.228.105.24.083.138.111.021.232.041.27-.049.271.074.271-.087.271.034.271-.009.272-.049.273.1.272.061.272-.135.272.076.272.116.271-.189.271.191.272-.044.272-.1.272-.075.272.115.273.086.272-.158.272.064.272-.076.271.179.272-.127.273.032.273.129.272-.122.272-.12.273.243.27-.045.271-.121.271-.072.273v.273l.126.272.039.272-.106.273.193.273-.172.274.008.273.136.274.012.273-.214.274.036.272.182.275-.174.275.008.275.145.269.078.23.022.271.142.226.087.25.164.211.139.223-.015.331.291.117.182.19.225.141.114.274.23.136.276.033.186.279.283.01.274-.125.285.186.286-.011.253-.228.275-.025.238-.142.346.062.094-.328.251-.157.08-.278.054-.293-.271-.226.025-.311-.252-.127-.3.024-.229-.146-.219-.195-.273-.012-.29.017-.226-.158-.233-.137-.092-.268-.212-.172-.117-.267-.032-.272.075-.272.149-.273.017-.272-.011-.273-.233-.273.054-.271.169-.272-.1-.272.038-.272v-.272l-.043-.273.151-.273-.024-.272-.09-.273-.129-.273-.008-.271.094-.272.066-.272-.1-.273.087-.273-.132-.274.2-.274-.077-.274-.025-.274.033-.274-.107-.275.02-.274.036-.275.132-.274-.211-.275.235-.274-.012-.274-.213-.275.06-.274.045-.274.062-.273-.08-.273.061-.273.05-.274-.142-.273.167-.273-.112-.273-.078-.274-.05-.273.1-.275.24-.121.245-.084.3.038.224-.146.166-.247.246-.09.233-.12.09-.269.228-.135.075-.242-.016-.288-.228-.174-.159-.249-.235-.161-.252-.13-.347.153-.248-.1-.265-.042-.246-.174-.086-.285.146-.265-.006-.271.046-.27.073-.27-.208-.276.073-.271.061-.273-.173-.331-.151-.058-.021-.3-.177-.233-.278-.089-.275-.039-.273.1-.271-.192z" data-name="Path 13"/><path d="M8.425 20.325l.157.054.254-.106.256-.069.259-.033.27.041.276.09.241-.21.282.128.252-.105.195-.034v.245l-.068.269.035.269-.036.269.09.27-.074.269.071.27-.022.269.023.269.031.269-.073.27.2.27-.24.27.109.27.129.269-.24.267.252.268-.1.269-.092.27.183.271-.15.27.054.269-.016.27.014.271-.086.271.2.271-.239.271-.019.271.178.271-.085.27.126.272-.138.272v.273l.121.245.117-.188.319.106.189-.238.291.065.234-.118.254-.044.228-.187.256-.08.266-.03.268.239.28-.224.271.08.249.154.241.127.317-.084.271.08.227.169.211.181.113.291.214.158.213.166.132.237.217.174.071.273.161.216.112.244.063.264.192.212.145.238-.052.3.138.241.167.252-.189.274.191.271-.044.27-.1.27-.075.27.115.27.086.27-.158.27.063.27-.075.271.179.271-.127.271.032.271.129.272-.122.272-.12.272.243.271-.045.271-.122.271-.072.271v.271l.126.271.038.272-.107.272.194.273-.172.272.008.272.136.272.012.272-.214.272.035.273.183.272-.175.272.008.272.145.272v.27l-.073.271.043.271-.028.272.047.273.007.272-.2.272.162.272.014.274.058.273-.139.273.014.273.095.273-.2.273.047.273.143.274-.192.274-.008.275.173.326-.314-.011-.262.06-.262-.213-.262.194-.262-.12h-.273l-.263-.053-.264.22-.207-.181v-.216l-.134-.27.068-.27.125-.271-.07-.27-.114-.27.05-.271-.008-.271.125-.271-.111-.272-.078-.272-.032-.272.075-.272.148-.271.017-.272-.012-.271-.232-.271.053-.272.169-.271-.1-.272.038-.272V41.2l-.043-.272.15-.272-.023-.272-.09-.272-.129-.272-.008-.272.094-.273.066-.273-.1-.272.088-.272-.133-.271.2-.271-.078-.271-.024-.272.033-.273-.107-.272.02-.272.035-.272.133-.274-.211-.273.235-.273-.012-.274-.213-.273.061-.273.045-.273.062-.274-.08-.275.061-.275.05-.274-.151-.274.131-.3-.169-.253-.157-.238-.154-.223-.054-.281-.2-.186-.195-.184-.157-.275-.28-.08-.3.063-.26-.089-.275-.051-.261.145-.277-.076-.266.05-.277.047-.2.2-.275.107-.2.211-.151.248.16.342-.075.246.007.257-.1.263.093.272-.135.271.015.272-.038.271-.066.272.213.271-.072.271-.067.272-.083.272.221.272-.152.273-.052.273.05.273.032.273.118.273-.208.272.005.272.035.272v.272l.163.273-.093.273-.061.273-.028.274.162.273-.089.273.125.273.012.273-.235.273.178.273-.02.274.086.274-.194.273.1.273.086.271-.173.272.082.273.058.273-.05.274.067.273-.206.273.134.274.07.274-.041.274-.161.274-.023.275.02.274-.019.274.03.274.188.275-.02.275-.11.277.025.273-.279.1-.283-.137-.283.056-.283-.029-.282.069-.284-.1-.284.135-.285-.069-.333.034.15-.321-.224-.27.239-.27-.207-.27.193-.271-.105-.271-.127-.27.134-.271-.063-.271.18-.271-.143-.271-.1-.271.23-.271-.166-.271.152-.271.029-.271-.059-.271-.116-.271-.062-.27.147-.27.086-.271-.048-.271.035-.27.022-.271-.216-.271.055-.271.164-.271v-.271l-.052-.271-.085-.271-.113-.271.246-.271-.031-.271-.14-.271.162-.268-.057-.27.039-.269-.172-.27-.029-.27.176-.271-.211-.271.033-.271.129-.272.072-.271-.076-.271.079-.271-.2-.27-.014-.27.234-.27-.2-.269-.027-.27.138-.269-.142-.27.221-.27-.24-.27.147-.271-.029-.271.143-.271-.057-.272.043-.272-.179-.272.163-.271-.047-.271.077-.271-.121-.271-.044-.271.046-.271-.092-.271.044-.272.14-.272-.089-.272-.092-.271.121-.271-.165-.272.129-.272.011-.272.054-.273v-.272l-.15-.272-.056-.272.058-.27.1-.27.106-.271-.228-.272.015-.273.015-.272.152-.272v-.272l-.061-.273.023-.273.05-.273-.138-.273.036-.273.124-.273-.113-.272-.086-.274v-.261l.16-.261z" data-name="Path 14"/><path d="M28.967 42.54l-.236.073-.283-.181-.283.034-.284-.059-.283.241-.285-.015-.285-.113-.283.135-.3-.135v.285l-.03.262-.006.265-.091.25-.146.225.068.317-.158.225-.145.236-.175.228-.317.016-.223.154-.287-.061-.243.136-.266-.07-.276.039-.289.04-.288-.037-.268-.115-.2-.218-.114-.274-.309-.11.007-.321-.167-.226-.033-.276-.047-.271.046-.275-.032-.267.036-.274-.09-.271.074-.271-.071-.272.021-.272-.023-.272-.031-.273.074-.272-.2-.272.24-.272-.109-.273-.129-.274.24-.274-.219-.357.351.067.266.092.266-.183.265.15.266-.054.263.016.264-.014.264.087.266-.205.266.24.265.018.265-.178.266.085.267-.126.266.139h.266l.267-.126.266-.044.267.215.266-.162.267.151.268-.05.268.017.205-.113-.066-.208v-.271l.248-.272-.233-.271.052-.271.108-.271.062-.269-.184-.269-.037-.27.039-.271.034-.272.159-.271-.028-.271-.041-.271.049-.272-.074-.272.087-.272-.034-.273.009-.272.049-.272-.1-.272-.06-.273.135-.274-.076-.274-.116-.274.163-.286-.238-.235-.026-.27.008-.292-.043-.287-.232-.193-.218-.183-.04-.314-.234-.165-.151-.247-.327-.034-.154-.26-.256-.111h-.3l-.205-.216-.225-.2-.33.16-.254-.1-.25-.167-.267-.107-.279-.029-.285.112-.276.034-.271-.1-.256.209-.282-.145-.267.048-.235.185-.252.076-.32-.123-.242.132-.165.277-.317-.024-.224.156-.124.277-.193.175-.236.139-.134.232-.175.2-.1.25-.114.236-.286.169.062.309-.062.257v.269l-.183.237-.017.266.083.262-.2.272.046.271.143.271-.192.271-.008.271.193.271-.033.272.061.272-.214.272.195.272-.121.271v.272l-.053.272.219.272-.205.272.027.272.133.272-.068.272-.124.27.069.27.114.271-.05.272.008.273-.125.272.111.272.078.272.032.273-.075.273-.148.272-.017.274.012.273.233.273-.054.272-.169.274.1.274-.038.275v.274l.024.266-.153.267.035.272.115.261.167.243.06.254-.022.279.023.274.193.209.039.277.248.161-.013.333.232.162.2.177.178.2.276.076.208.16.214.16.188.234.327-.1.182.307.267.059.307-.152.25.1.26.078.263.085.274-.067.268.066.276.045.266-.155.289.142.259-.146.254-.124.25-.108.286.022.243-.125.25-.1.311.009.219-.175.141-.273.239-.131.222-.16.078-.289.251-.144.161-.219.183-.211.05-.278.193-.219.108-.258.085-.266-.207-.317.063-.259v-.268l.125-.264-.1-.266zm-6.52-10.362l.094-.277.3-.117.151-.213.235-.117.1-.344.266-.1.295.035.252-.174.282.133.263.023.248.085.25.088.2.18.144.226.318.073.145.233.174.214.176.22-.03.313.146.231-.053.267.1.258-.082.267.052.268.084.267.043.268v.268l-.072.268-.123.268.179.267-.162.269.072.27-.041.27.02.226-.223-.087-.267.035-.267-.036-.267.09-.268-.074-.268.071-.268-.021-.269.023-.268.031-.268-.073-.267.2-.269-.24-.27.109-.27.129-.175-.2-.215-.184.1-.278.092-.277-.183-.277.15-.277-.054-.279.016-.278-.014-.278.087-.279-.205-.279.239-.279.019-.277-.178-.28.085-.28-.126-.273z" data-name="Path 15"/></g></svg>